<svg width="109" height="103" viewBox="0 0 109 103" fill="none" xmlns="http://www.w3.org/2000/svg">
<path d="M14.0119 91.9664L30.2911 86.5375L33.1403 87.9621C39.6859 91.2272 46.963 92.9675 54.5944 92.9675C80.0836 92.9675 100.798 72.8996 100.798 50.6139C100.798 28.3282 80.0836 8.26023 54.5944 8.26023C29.1052 8.26023 8.39042 28.3282 8.39042 50.6139C8.39042 58.9306 11.3937 67.3705 16.9151 74.586L19.5718 78.0513L14.0042 91.9587L14.0119 91.9664ZM8.56753 101.9C7.87068 102.134 7.12155 102.163 6.40865 101.984C5.69575 101.806 5.04886 101.427 4.54438 100.892C4.0399 100.358 3.69892 99.6903 3.5617 98.9683C3.42448 98.2463 3.49677 97.5001 3.77002 96.8178L10.793 79.2603C4.38608 70.8666 0.689758 60.8249 0.689758 50.6139C0.689758 25.0939 23.7917 0.55957 54.5944 0.55957C85.397 0.55957 108.499 25.0939 108.499 50.6139C108.499 76.1339 85.397 100.668 54.5944 100.668C45.9555 100.693 37.4304 98.699 29.6981 94.8465L8.56753 101.893V101.9Z" fill="white"/>
<path d="M35.3427 58.3146H73.846C76.4129 58.3146 77.6964 59.5981 77.6964 62.165C77.6964 64.7318 76.4129 66.0153 73.846 66.0153H35.3427C32.7758 66.0153 31.4924 64.7318 31.4924 62.165C31.4924 59.5981 32.7758 58.3146 35.3427 58.3146ZM39.1931 35.2126H69.9957C72.5626 35.2126 73.846 36.4961 73.846 39.063C73.846 41.6299 72.5626 42.9133 69.9957 42.9133H39.1931C36.6262 42.9133 35.3427 41.6299 35.3427 39.063C35.3427 36.4961 36.6262 35.2126 39.1931 35.2126Z" fill="white"/>
</svg>
