<svg width="69" height="107" viewBox="0 0 69 107" fill="none" xmlns="http://www.w3.org/2000/svg">
<path d="M34.4279 28.5246C21.973 28.5246 11.849 38.4098 11.849 50.5558C11.849 53.0833 12.3124 55.6108 13.2392 58.1102L21.5939 78.8636C18.5188 79.2708 16.1317 81.8826 16.1317 85.056C16.1317 86.4742 16.6232 87.766 17.4235 88.8191C16.6232 89.8722 16.1317 91.164 16.1317 92.5823C16.1317 96.0365 18.9541 98.8588 22.4364 98.8588H24.9077C24.9077 103.015 28.8534 106.385 33.6837 106.385C38.514 106.385 42.4597 103.015 42.4597 98.8588H44.931C48.4133 98.8588 51.2357 96.0505 51.2357 92.5823C51.2357 91.164 50.7442 89.8722 49.9439 88.8191C50.7442 87.766 51.2357 86.4742 51.2357 85.056C51.2357 82.2055 49.2979 79.8044 46.6581 79.0602L54.6197 60.3709L54.8163 59.9356C56.3609 56.4673 57.0068 55.0351 57.0068 50.5558C57.0068 38.4098 46.8828 28.5246 34.4279 28.5246ZM33.6837 101.358C31.6758 101.358 29.9206 100.193 29.9206 98.8448H37.4468C37.4468 100.179 35.6917 101.358 33.6837 101.358ZM44.9451 93.832H22.4224C21.7062 93.832 21.1305 93.2703 21.1305 92.5823C21.1305 91.8942 21.7062 91.3326 22.4224 91.3326H44.931C45.6471 91.3326 46.2228 91.8942 46.2228 92.5823C46.2228 93.2703 45.6471 93.832 44.9451 93.832ZM44.9451 86.3057H22.4224C21.7062 86.3057 21.1305 85.744 21.1305 85.056C21.1305 84.3679 21.7062 83.8063 22.4224 83.8063H44.931C45.6471 83.8063 46.2228 84.3679 46.2228 85.056C46.2228 85.744 45.6471 86.3057 44.9451 86.3057ZM32.2234 78.7794L29.6257 61.9435C30.8333 62.4771 32.434 62.9405 34.3998 62.9405C36.2393 62.9405 37.7277 62.5333 38.837 62.0418L36.2533 78.7794H32.2234ZM50.2387 57.8855L41.3364 78.7794H38.8089L41.7576 59.6407C41.8419 59.0931 41.561 58.5595 41.0555 58.3208C40.5641 58.0821 39.9603 58.1944 39.5812 58.6016C39.511 58.6718 37.84 60.427 34.3998 60.427C30.8894 60.427 28.9096 58.6157 28.8394 58.5455C28.4462 58.1663 27.8705 58.0821 27.3931 58.3348C26.9157 58.5876 26.6489 59.1071 26.7331 59.6407L29.6819 78.7794H26.9578L17.915 56.2988C17.2129 54.4172 16.8619 52.4935 16.8619 50.5558C16.8619 41.176 24.7392 33.5514 34.4279 33.5514C44.1166 33.5514 51.9939 41.1901 51.9939 50.5558C51.9939 53.9539 51.6569 54.7121 50.2387 57.8855ZM14.8961 29.8445C15.879 28.8616 15.8649 27.2749 14.882 26.2919L4.84229 16.3224C3.85938 15.3395 2.27268 15.3536 1.28977 16.3365C0.306859 17.3194 0.320901 18.9061 1.30381 19.889L11.3576 29.8725C11.849 30.364 12.4809 30.6027 13.1268 30.6027C13.7727 30.5887 14.4186 30.35 14.8961 29.8445ZM67.566 16.3365C66.5972 15.3536 64.9964 15.3536 64.0135 16.3224L53.9597 26.306C52.9768 27.2749 52.9768 28.8616 53.9457 29.8585C54.4372 30.35 55.0831 30.6027 55.729 30.6027C56.3749 30.6027 57.0068 30.364 57.4982 29.8725L67.552 19.889C68.5349 18.9061 68.549 17.3194 67.566 16.3365ZM34.4279 23.5819C35.818 23.5819 36.9414 22.4586 36.9414 21.0685V3.50246C36.9414 2.11234 35.818 0.989014 34.4279 0.989014C33.0378 0.989014 31.9145 2.11234 31.9145 3.50246V21.0685C31.9145 22.4586 33.0378 23.5819 34.4279 23.5819Z" fill="white"/>
</svg>
