<svg width="114" height="114" viewBox="0 0 114 114" fill="none" xmlns="http://www.w3.org/2000/svg">
<path d="M98.5898 110.969H34.0402V77.8711C34.0402 76.5548 35.116 75.479 36.4324 75.479H98.5898V110.969ZM23.5224 110.462H17.0168V83.3009C17.0168 82.2377 17.8775 81.3771 18.9407 81.3771H23.5224V110.462Z" fill="white" fill-opacity="0.6"/>
<path d="M111.361 109.45H108.665V75.3777C108.665 73.4286 106.842 71.8465 104.614 71.8465H93.3499V68.8088C93.3499 66.8597 91.5273 65.2776 89.2997 65.2776H26.0538C23.8262 65.2776 22.0036 66.8597 22.0036 68.8088V71.8465H10.4733C8.24572 71.8465 6.42314 73.4286 6.42314 75.3777V109.45H2.96784C2.08187 109.45 1.29715 109.855 0.866815 110.462C0.588366 110.779 0.423828 111.158 0.423828 111.589V111.728C0.423828 112.146 0.588366 112.538 0.866815 112.854C1.3098 113.462 2.08187 113.867 2.96784 113.867H111.361C112.727 113.867 113.841 112.905 113.841 111.728V111.589C113.841 110.412 112.727 109.45 111.361 109.45ZM93.3879 76.2637H101.083C102.475 76.2637 103.589 77.3901 103.589 78.7697V109.222H93.3879V76.2637ZM27.0664 69.6948H88.2872V109.361H27.0664V69.6948ZM13.3717 76.2637H21.6872V109.222H11.4859V78.1495C11.4859 77.1117 12.3339 76.2637 13.3717 76.2637Z" fill="white"/>
<path d="M38.8751 78.0484H45.5199V84.6932H38.8751V78.0484ZM38.7485 94.3756H45.3934V101.02H38.7485V94.3756ZM69.1375 78.0484H75.7823V84.6932H69.1375V78.0484ZM69.0109 94.3756H75.6557V101.02H69.0109V94.3756ZM54.0126 78.0484H60.6574V84.6932H54.0126V78.0484ZM53.8861 94.3756H60.5309V101.02H53.8861V94.3756ZM59.9993 57.5064C95.4889 54.9751 93.7043 -0.436327 54.6075 0.778724C49.6587 1.37359 48.9499 1.85455 46.0895 2.76584C39.0143 5.68956 32.9644 11.9926 30.1926 19.2197C22.9023 38.1795 36.4324 59.1898 59.9993 57.5064ZM78.1618 39.635L78.4402 40.483C76.0481 43.1536 74.4786 48.1151 70.4917 49.2795V50.6971H68.7831C67.5301 51.659 65.872 53.2664 65.3784 54.9497H65.1C62.518 52.3551 67.1883 49.4314 65.948 45.0268C65.467 43.3308 63.6065 42.66 62.8217 40.7742C62.961 38.4706 63.8976 36.7366 64.5304 35.1039C66.7453 31.56 77.6049 38.6605 78.1618 39.635ZM37.5588 9.85364C41.0014 7.60073 45.2035 5.52502 50.899 5.60096V5.32251C50.3168 4.70233 50.5194 4.77827 49.4815 4.4745L53.7468 3.90495L56.8731 6.46162C58.8981 5.30985 59.4803 5.12 62.2648 5.61361V5.89206C61.6826 6.91726 61.4042 7.36025 60.2777 7.87918C59.9993 8.44873 59.7082 9.01829 59.4297 9.57519L62.556 11.5623C63.771 11.3598 63.7583 12.1192 63.9735 13.5494C65.1759 13.5114 65.6822 13.0305 65.9606 11.2839C66.2644 10.2713 65.6822 9.62581 65.1126 8.72718C69.7197 9.41065 72.6181 12.3344 74.4786 16.1061L73.9091 16.6756L73.0611 16.3972V14.9796H70.5044C70.8841 15.9289 71.2638 16.8655 71.6435 17.8148C71.0613 18.7767 65.872 22.3206 64.8342 22.637V25.4721L59.7208 23.485C59.2525 23.6748 58.7716 23.8647 58.3033 24.0545C57.7337 25.1937 57.7717 26.2315 58.0248 27.7377C58.2147 28.0161 58.4045 28.3072 58.5944 28.5857C59.2525 28.3072 59.9233 28.0161 60.5815 27.7377V30.0032C61.5307 30.1931 62.48 30.3829 63.4166 30.5728C64.1127 31.2942 63.9735 32.2182 64.8342 32.8383C61.9231 33.3573 48.4057 23.3837 47.2286 20.9283C45.2415 16.8149 48.3424 13.7519 44.1024 11.8534C41.09 10.5624 38.6599 12.4736 36.7235 12.9925L37.5588 9.85364Z" fill="white"/>
</svg>
