<?xml version="1.0" ?><svg fill="none" height="24" viewBox="0 0 24 24" width="24" xmlns="http://www.w3.org/2000/svg"><path clip-rule="evenodd" d="M1.5 6.5C1.5 5.67157 2.17157 5 3 5H22C22.1881 5 22.3602 5.10553 22.4456 5.27311C22.5309 5.4407 22.515 5.64199 22.4044 5.79409L18.5 11.1626V17.5C18.5 18.3284 17.8284 19 17 19H3C2.17157 19 1.5 18.3284 1.5 17.5V6.5ZM3 6C2.72386 6 2.5 6.22386 2.5 6.5V17.5C2.5 17.7761 2.72386 18 3 18H17C17.2761 18 17.5 17.7761 17.5 17.5V11C17.5 10.8943 17.5335 10.7914 17.5956 10.7059L21.0181 6H3Z" fill="black" fill-rule="evenodd"/><path clip-rule="evenodd" d="M15 10.5H5V9.5H15V10.5Z" fill="black" fill-rule="evenodd"/><path clip-rule="evenodd" d="M12 14.5H5V13.5H12V14.5Z" fill="black" fill-rule="evenodd"/></svg>