<svg width="125" height="121" viewBox="0 0 125 121" fill="none" xmlns="http://www.w3.org/2000/svg">
<path d="M125 57.572L124.526 58.2975C124.437 58.4455 115.095 72.5401 103.059 89.3143C93.7611 102.269 82.9385 103.986 77.816 103.986C76.0986 103.986 75.0178 103.794 74.8401 103.764H44.1194L41.9727 101.647H75.0474C75.8469 101.78 89.7193 104.208 101.327 88.0707C111.764 73.5468 120.129 61.0513 122.231 57.8978C120.721 56.6689 115.865 52.6863 111.187 53.4414C109.677 53.6931 107.397 55.3957 104.895 57.8682L104.554 57.5276V55.0256C106.953 52.9824 109.188 51.6056 110.861 51.3391C117.864 50.1991 124.127 56.7281 124.363 56.965L125 57.572Z" fill="white"/>
<path d="M109.336 20.2333V31.426C109.336 33.854 107.367 35.8231 104.939 35.8231H104.554V55.0402C103.888 55.6324 103.207 56.2542 102.511 56.9205V35.8231H80.9991V66.1589C80.2588 66.1145 79.4593 66.1441 78.6154 66.2329V18.353C78.4082 18.353 78.2305 18.3678 78.0232 18.3678C76.3947 18.3678 74.6773 18.3086 72.8562 18.2198H72.338C71.6126 18.2642 70.9316 18.279 70.2505 18.3086V67.595C69.3918 67.6838 68.6071 67.743 67.8669 67.7726V35.8231H45.748V63.0498C45.0521 62.9906 44.3711 62.9906 43.7049 62.9906V35.8231H42.7425C40.3145 35.8231 38.3306 33.854 38.3306 31.426V20.2333C38.3306 17.8052 40.3145 15.8361 42.7425 15.8361H52.588C50.8854 14.933 49.6121 13.8226 48.8422 12.4606C46.4882 8.3003 49.5381 3.75512 49.6713 3.56265C51.8625 0.897718 54.335 -0.257087 57.0739 0.0538218C64.0472 0.82369 70.4726 11.2761 72.6045 15.0811C74.7513 11.2761 81.1767 0.82369 88.15 0.0538218C90.8741 -0.271892 93.3614 0.882911 95.4933 3.45901C95.6858 3.74031 98.7357 8.28549 96.3816 12.4457C95.6118 13.8078 94.3385 14.9034 92.6359 15.8213H104.954C107.367 15.8361 109.336 17.8052 109.336 20.2333ZM106.953 31.426V20.2333C106.953 19.1229 106.049 18.2198 104.939 18.2198H82.3611C81.9022 18.2346 81.4728 18.279 80.9991 18.2938V33.4247H104.954C106.049 33.4247 106.953 32.5364 106.953 31.426ZM94.2941 11.3206C95.9227 8.44835 93.5983 4.95433 93.5687 4.92472C92.0141 3.07408 90.2967 2.21538 88.4016 2.43745C83.2495 3.00005 77.5939 11.1429 74.9289 15.8361H82.6128C90.1931 15.2587 93.2133 13.2156 94.2941 11.3206ZM62.537 15.8361H70.2653C67.6004 11.1429 61.9596 3.00005 56.8074 2.43745C54.8976 2.23018 53.1654 3.05927 51.5664 5.01355C51.5812 5.01355 49.316 8.46316 50.9298 11.3206C51.9957 13.186 54.9716 15.2587 62.537 15.8361ZM67.8817 33.4247V18.3826H67.1858C65.6313 18.3826 64.21 18.3234 62.8479 18.2346H42.7425C41.6321 18.2346 40.729 19.1229 40.729 20.2481V31.4408C40.729 32.5512 41.6173 33.4543 42.7425 33.4543H67.8817V33.4247Z" fill="white"/>
<path d="M104.569 57.5275L104.909 57.868C99.6979 63.035 93.5538 71.5332 91.5551 76.9519L91.5403 76.9075C91.6291 75.6342 91.4811 74.2573 91.0221 72.9249C93.2577 67.5654 97.9509 61.3028 102.511 56.8909V58.5046L103.755 57.5275H104.569Z" fill="white"/>
<path d="M104.569 55.0254V57.5275H103.769L102.526 58.5046V56.8908C103.222 56.2394 103.903 55.6176 104.569 55.0254Z" fill="white"/>
<path d="M91.0369 72.9397C91.4959 74.2722 91.644 75.649 91.5551 76.9223L90.652 73.9464C90.7556 73.6207 90.8741 73.2802 91.0369 72.9397Z" fill="white"/>
<path d="M90.6372 73.9464L91.5404 76.9222C91.4811 78.2251 91.185 79.4539 90.7113 80.431C88.2536 85.3315 84.0786 87.6263 77.5791 87.6263H58.7025V85.4944H77.5791C83.2643 85.4944 86.7287 83.6437 88.8014 79.4687C89.823 77.4256 89.823 73.8871 87.7946 71.311C86.5954 69.7713 84.4043 68.2316 80.4513 68.2316V67.6394H80.9991V66.144C85.7367 66.3217 88.2536 68.4685 89.4676 70.0082C90.1931 70.9113 90.6965 71.9181 91.037 72.9396C90.8741 73.2801 90.7557 73.6207 90.6372 73.9464Z" fill="white"/>
<path d="M80.999 66.1441V67.6394H80.4513L78.6154 67.6838V66.2329C79.4593 66.1293 80.2588 66.1145 80.999 66.1441Z" fill="white"/>
<path d="M80.4512 67.6396V68.2318C79.1484 68.2318 77.6531 68.4095 75.9209 68.7944C63.144 71.7406 57.6661 68.0542 56.5557 67.1214C31.9791 59.5264 21.1121 75.4715 19.069 78.9508L17.5293 77.411C19.8241 73.7245 27.8041 63.124 43.69 62.9612V63.8643H45.7479V63.0056C49.2568 63.1388 53.1357 63.8199 57.3848 65.1523L57.6365 65.2264L57.829 65.404C57.8734 65.4484 60.6567 67.9801 67.8817 67.7581V68.4983H68.6219L70.2653 68.4835V67.5952C71.8198 67.4471 73.5372 67.1659 75.4471 66.7217C76.5871 66.47 77.6383 66.3072 78.6154 66.2035V67.6544L80.4512 67.6396Z" fill="white"/>
<path d="M70.2653 67.6099V68.4982L68.6219 68.513H67.8817V67.7727C68.6219 67.7579 69.4066 67.6987 70.2653 67.6099Z" fill="white"/>
<path d="M45.748 63.0349V63.8936H43.7048V62.9905C44.3711 62.9905 45.0521 62.9905 45.748 63.0349ZM44.8004 104.445C47.643 107.273 47.6726 111.892 44.8448 114.72L41.6469 117.962C40.2849 119.339 38.4638 120.109 36.5095 120.109H36.4651C34.5404 120.109 32.7194 119.369 31.3573 118.021L2.14675 89.092C0.784674 87.7151 0 85.8941 0 83.9398C0 81.9855 0.740258 80.1793 2.10233 78.7876L5.30025 75.5453C6.66232 74.1832 8.48336 73.3985 10.4376 73.3985H10.4821C12.4067 73.3985 14.2278 74.1388 15.6194 75.5008L17.5441 77.4107C17.0704 78.1658 16.8483 78.6395 16.8187 78.684L18.7137 79.5871C18.7285 79.5723 18.847 79.3354 19.0691 78.9504L41.9726 101.632H40.8623V103.512L14.1093 77.011C13.147 76.0634 11.8589 75.5305 10.4673 75.5305H10.4524C9.07557 75.5305 7.75791 76.0782 6.79557 77.0406L3.59766 80.2829C2.63532 81.2452 2.11714 82.5481 2.11714 83.9398C2.11714 85.3167 2.66493 86.6047 3.62727 87.5819L32.8379 116.511C33.8002 117.473 35.0882 118.006 36.4503 118.006H36.4947C37.8716 117.992 39.1597 117.459 40.1368 116.467L43.3347 113.254C45.3482 111.226 45.3186 107.954 43.2903 105.94L41.0991 103.764H44.1194L44.8004 104.445Z" fill="white"/>
<path d="M44.1194 103.764H41.114L40.8623 103.512V101.647H41.9727L44.1194 103.764Z" fill="white"/>
<path d="M41.1139 103.764H40.8622V103.512L41.1139 103.764ZM17.5293 77.4255L19.069 78.9653C18.847 79.365 18.7285 79.5871 18.7137 79.6019L16.8186 78.6988C16.8335 78.6544 17.0703 78.1806 17.5293 77.4255Z" fill="white"/>
</svg>
