<svg width="541" height="708" viewBox="0 0 541 708" fill="none" xmlns="http://www.w3.org/2000/svg">
<g filter="url(#filter0_d_91_19)">
<mask id="path-1-inside-1_91_19" fill="white">
<path fill-rule="evenodd" clip-rule="evenodd" d="M55.7199 214.78C55.7199 96.1604 151.88 0 270.5 0C389.12 0 485.281 96.1604 485.281 214.78V348.258H510C524.912 348.258 537 360.346 537 375.258V672.504C537 687.416 524.912 699.504 510 699.504H31C16.0883 699.504 4 687.416 4 672.504V375.258C4 360.346 16.0883 348.258 31 348.258H55.7199V214.78ZM142.638 217.101C142.638 145.49 200.689 87.4381 272.3 87.4381H278.757C350.367 87.4381 408.419 145.49 408.419 217.101C408.419 220.157 408.313 223.189 408.105 226.193H408.412V251.104H408.419V349.752H141.919V292.955H141.422V220.214H142.674C142.65 219.179 142.638 218.141 142.638 217.101ZM262.583 468.578C247.119 468.578 234.583 481.114 234.583 496.578V534.742C234.583 535.666 234.628 536.579 234.716 537.479C227.042 546.35 222.372 558.089 222.372 570.963C222.372 598.617 243.92 621.034 270.5 621.034C297.081 621.034 318.628 598.617 318.628 570.963C318.628 558.089 313.958 546.35 306.284 537.479C306.372 536.579 306.416 535.666 306.416 534.742V496.578C306.416 481.114 293.88 468.578 278.416 468.578H262.583ZM178.281 379.909V415.753C178.281 418.962 178.656 421.389 179.406 423.034C180.177 424.68 181.344 425.784 182.906 426.347C184.49 426.909 186.49 427.191 188.906 427.191H190.594L191.281 422.253H190.25C188.604 422.253 187.344 422.097 186.469 421.784C185.594 421.451 184.99 420.826 184.656 419.909C184.323 418.972 184.156 417.607 184.156 415.816V379.909H178.281ZM204.438 426.284C206.458 427.18 209.125 427.628 212.438 427.628C215.729 427.628 218.375 427.18 220.375 426.284C222.396 425.368 223.865 424.118 224.781 422.534C225.698 420.951 226.156 419.139 226.156 417.097V403.753C226.156 401.712 225.698 399.899 224.781 398.316C223.865 396.712 222.396 395.462 220.375 394.566C218.375 393.649 215.729 393.191 212.438 393.191C209.125 393.191 206.458 393.649 204.438 394.566C202.438 395.462 200.979 396.712 200.062 398.316C199.167 399.899 198.719 401.712 198.719 403.753V417.097C198.719 419.139 199.167 420.951 200.062 422.534C200.979 424.118 202.438 425.368 204.438 426.284ZM218.062 421.909C216.604 422.722 214.729 423.128 212.438 423.128C210.104 423.128 208.208 422.722 206.75 421.909C205.312 421.076 204.594 419.639 204.594 417.597V403.253C204.594 401.212 205.312 399.774 206.75 398.941C208.208 398.107 210.104 397.691 212.438 397.691C214.729 397.691 216.604 398.107 218.062 398.941C219.542 399.774 220.281 401.212 220.281 403.253V417.597C220.281 419.639 219.542 421.076 218.062 421.909ZM242.938 439.409C244.542 439.597 246.458 439.691 248.688 439.691C252.125 439.691 254.833 439.097 256.812 437.909C258.812 436.743 260.229 435.139 261.062 433.097C261.917 431.055 262.344 428.743 262.344 426.159V393.816H256.469V396.472C256.156 395.951 255.542 395.441 254.625 394.941C253.708 394.441 252.646 394.024 251.438 393.691C250.25 393.357 249.094 393.191 247.969 393.191C243.656 393.191 240.479 394.191 238.438 396.191C236.417 398.191 235.406 400.857 235.406 404.191V415.097C235.406 418.534 236.438 421.159 238.5 422.972C240.583 424.784 243.74 425.691 247.969 425.691C248.74 425.691 249.667 425.618 250.75 425.472C251.833 425.305 252.896 425.055 253.938 424.722C255 424.368 255.844 423.899 256.469 423.316V427.909C256.469 430.368 255.833 432.201 254.562 433.409C253.312 434.618 251.26 435.222 248.406 435.222C246.865 435.222 245.302 435.107 243.719 434.878C242.135 434.649 240.896 434.368 240 434.034L238.688 438.441C239.917 438.899 241.333 439.222 242.938 439.409ZM253.969 420.222C252.76 420.868 251.062 421.191 248.875 421.191C246.729 421.191 244.927 420.826 243.469 420.097C242.01 419.347 241.281 417.982 241.281 416.003V403.566C241.281 401.524 241.958 400.034 243.312 399.097C244.688 398.159 246.531 397.691 248.844 397.691C251.448 397.691 253.365 398.097 254.594 398.909C255.844 399.701 256.469 400.816 256.469 402.253V418.691C256.01 419.066 255.177 419.576 253.969 420.222ZM278.062 426.284C280.083 427.18 282.75 427.628 286.062 427.628C289.354 427.628 292 427.18 294 426.284C296.021 425.368 297.49 424.118 298.406 422.534C299.323 420.951 299.781 419.139 299.781 417.097V403.753C299.781 401.712 299.323 399.899 298.406 398.316C297.49 396.712 296.021 395.462 294 394.566C292 393.649 289.354 393.191 286.062 393.191C282.75 393.191 280.083 393.649 278.062 394.566C276.062 395.462 274.604 396.712 273.688 398.316C272.792 399.899 272.344 401.712 272.344 403.753V417.097C272.344 419.139 272.792 420.951 273.688 422.534C274.604 424.118 276.062 425.368 278.062 426.284ZM291.688 421.909C290.229 422.722 288.354 423.128 286.062 423.128C283.729 423.128 281.833 422.722 280.375 421.909C278.938 421.076 278.219 419.639 278.219 417.597V403.253C278.219 401.212 278.938 399.774 280.375 398.941C281.833 398.107 283.729 397.691 286.062 397.691C288.354 397.691 290.229 398.107 291.688 398.941C293.167 399.774 293.906 401.212 293.906 403.253V417.597C293.906 419.639 293.167 421.076 291.688 421.909ZM314.719 426.284C316.406 427.18 318.604 427.628 321.312 427.628C323.729 427.628 325.729 427.191 327.312 426.316C328.917 425.441 330.135 424.264 330.969 422.784L331.594 426.941H336.844V393.816H330.969V417.284C330.969 418.68 330.271 420.003 328.875 421.253C327.479 422.503 325.344 423.128 322.469 423.128C320.427 423.128 318.802 422.67 317.594 421.753C316.385 420.837 315.781 419.555 315.781 417.909V393.816H309.906V417.878C309.906 419.628 310.292 421.243 311.062 422.722C311.833 424.201 313.052 425.389 314.719 426.284ZM350.688 398.253V417.472C350.688 421.118 351.74 423.649 353.844 425.066C355.948 426.482 359.26 427.191 363.781 427.191H364.656L365.281 422.253H364.625C361.833 422.253 359.792 421.941 358.5 421.316C357.208 420.691 356.562 419.284 356.562 417.097V398.253H364.875V393.816H356.562V383.566H351.625L350.906 393.816H345.156V398.253H350.688Z"/>
</mask>
<path fill-rule="evenodd" clip-rule="evenodd" d="M55.7199 214.78C55.7199 96.1604 151.88 0 270.5 0C389.12 0 485.281 96.1604 485.281 214.78V348.258H510C524.912 348.258 537 360.346 537 375.258V672.504C537 687.416 524.912 699.504 510 699.504H31C16.0883 699.504 4 687.416 4 672.504V375.258C4 360.346 16.0883 348.258 31 348.258H55.7199V214.78ZM142.638 217.101C142.638 145.49 200.689 87.4381 272.3 87.4381H278.757C350.367 87.4381 408.419 145.49 408.419 217.101C408.419 220.157 408.313 223.189 408.105 226.193H408.412V251.104H408.419V349.752H141.919V292.955H141.422V220.214H142.674C142.65 219.179 142.638 218.141 142.638 217.101ZM262.583 468.578C247.119 468.578 234.583 481.114 234.583 496.578V534.742C234.583 535.666 234.628 536.579 234.716 537.479C227.042 546.35 222.372 558.089 222.372 570.963C222.372 598.617 243.92 621.034 270.5 621.034C297.081 621.034 318.628 598.617 318.628 570.963C318.628 558.089 313.958 546.35 306.284 537.479C306.372 536.579 306.416 535.666 306.416 534.742V496.578C306.416 481.114 293.88 468.578 278.416 468.578H262.583ZM178.281 379.909V415.753C178.281 418.962 178.656 421.389 179.406 423.034C180.177 424.68 181.344 425.784 182.906 426.347C184.49 426.909 186.49 427.191 188.906 427.191H190.594L191.281 422.253H190.25C188.604 422.253 187.344 422.097 186.469 421.784C185.594 421.451 184.99 420.826 184.656 419.909C184.323 418.972 184.156 417.607 184.156 415.816V379.909H178.281ZM204.438 426.284C206.458 427.18 209.125 427.628 212.438 427.628C215.729 427.628 218.375 427.18 220.375 426.284C222.396 425.368 223.865 424.118 224.781 422.534C225.698 420.951 226.156 419.139 226.156 417.097V403.753C226.156 401.712 225.698 399.899 224.781 398.316C223.865 396.712 222.396 395.462 220.375 394.566C218.375 393.649 215.729 393.191 212.438 393.191C209.125 393.191 206.458 393.649 204.438 394.566C202.438 395.462 200.979 396.712 200.062 398.316C199.167 399.899 198.719 401.712 198.719 403.753V417.097C198.719 419.139 199.167 420.951 200.062 422.534C200.979 424.118 202.438 425.368 204.438 426.284ZM218.062 421.909C216.604 422.722 214.729 423.128 212.438 423.128C210.104 423.128 208.208 422.722 206.75 421.909C205.312 421.076 204.594 419.639 204.594 417.597V403.253C204.594 401.212 205.312 399.774 206.75 398.941C208.208 398.107 210.104 397.691 212.438 397.691C214.729 397.691 216.604 398.107 218.062 398.941C219.542 399.774 220.281 401.212 220.281 403.253V417.597C220.281 419.639 219.542 421.076 218.062 421.909ZM242.938 439.409C244.542 439.597 246.458 439.691 248.688 439.691C252.125 439.691 254.833 439.097 256.812 437.909C258.812 436.743 260.229 435.139 261.062 433.097C261.917 431.055 262.344 428.743 262.344 426.159V393.816H256.469V396.472C256.156 395.951 255.542 395.441 254.625 394.941C253.708 394.441 252.646 394.024 251.438 393.691C250.25 393.357 249.094 393.191 247.969 393.191C243.656 393.191 240.479 394.191 238.438 396.191C236.417 398.191 235.406 400.857 235.406 404.191V415.097C235.406 418.534 236.438 421.159 238.5 422.972C240.583 424.784 243.74 425.691 247.969 425.691C248.74 425.691 249.667 425.618 250.75 425.472C251.833 425.305 252.896 425.055 253.938 424.722C255 424.368 255.844 423.899 256.469 423.316V427.909C256.469 430.368 255.833 432.201 254.562 433.409C253.312 434.618 251.26 435.222 248.406 435.222C246.865 435.222 245.302 435.107 243.719 434.878C242.135 434.649 240.896 434.368 240 434.034L238.688 438.441C239.917 438.899 241.333 439.222 242.938 439.409ZM253.969 420.222C252.76 420.868 251.062 421.191 248.875 421.191C246.729 421.191 244.927 420.826 243.469 420.097C242.01 419.347 241.281 417.982 241.281 416.003V403.566C241.281 401.524 241.958 400.034 243.312 399.097C244.688 398.159 246.531 397.691 248.844 397.691C251.448 397.691 253.365 398.097 254.594 398.909C255.844 399.701 256.469 400.816 256.469 402.253V418.691C256.01 419.066 255.177 419.576 253.969 420.222ZM278.062 426.284C280.083 427.18 282.75 427.628 286.062 427.628C289.354 427.628 292 427.18 294 426.284C296.021 425.368 297.49 424.118 298.406 422.534C299.323 420.951 299.781 419.139 299.781 417.097V403.753C299.781 401.712 299.323 399.899 298.406 398.316C297.49 396.712 296.021 395.462 294 394.566C292 393.649 289.354 393.191 286.062 393.191C282.75 393.191 280.083 393.649 278.062 394.566C276.062 395.462 274.604 396.712 273.688 398.316C272.792 399.899 272.344 401.712 272.344 403.753V417.097C272.344 419.139 272.792 420.951 273.688 422.534C274.604 424.118 276.062 425.368 278.062 426.284ZM291.688 421.909C290.229 422.722 288.354 423.128 286.062 423.128C283.729 423.128 281.833 422.722 280.375 421.909C278.938 421.076 278.219 419.639 278.219 417.597V403.253C278.219 401.212 278.938 399.774 280.375 398.941C281.833 398.107 283.729 397.691 286.062 397.691C288.354 397.691 290.229 398.107 291.688 398.941C293.167 399.774 293.906 401.212 293.906 403.253V417.597C293.906 419.639 293.167 421.076 291.688 421.909ZM314.719 426.284C316.406 427.18 318.604 427.628 321.312 427.628C323.729 427.628 325.729 427.191 327.312 426.316C328.917 425.441 330.135 424.264 330.969 422.784L331.594 426.941H336.844V393.816H330.969V417.284C330.969 418.68 330.271 420.003 328.875 421.253C327.479 422.503 325.344 423.128 322.469 423.128C320.427 423.128 318.802 422.67 317.594 421.753C316.385 420.837 315.781 419.555 315.781 417.909V393.816H309.906V417.878C309.906 419.628 310.292 421.243 311.062 422.722C311.833 424.201 313.052 425.389 314.719 426.284ZM350.688 398.253V417.472C350.688 421.118 351.74 423.649 353.844 425.066C355.948 426.482 359.26 427.191 363.781 427.191H364.656L365.281 422.253H364.625C361.833 422.253 359.792 421.941 358.5 421.316C357.208 420.691 356.562 419.284 356.562 417.097V398.253H364.875V393.816H356.562V383.566H351.625L350.906 393.816H345.156V398.253H350.688Z" fill="#22577A"/>
<path d="M485.281 348.258H484.281V349.258H485.281V348.258ZM55.7199 348.258V349.258H56.7199V348.258H55.7199ZM408.105 226.193L407.108 226.124L407.034 227.193H408.105V226.193ZM408.412 226.193H409.412V225.193H408.412V226.193ZM408.412 251.104H407.412V252.104H408.412V251.104ZM408.419 251.104H409.419V250.104H408.419V251.104ZM408.419 349.752V350.752H409.419V349.752H408.419ZM141.919 349.752H140.919V350.752H141.919V349.752ZM141.919 292.955H142.919V291.955H141.919V292.955ZM141.422 292.955H140.422V293.955H141.422V292.955ZM141.422 220.214V219.214H140.422V220.214H141.422ZM142.674 220.214V221.214H143.698L143.674 220.191L142.674 220.214ZM234.716 537.479L235.472 538.134L235.752 537.81L235.711 537.383L234.716 537.479ZM306.284 537.479L305.289 537.382L305.248 537.809L305.528 538.133L306.284 537.479ZM178.281 379.909V378.909H177.281V379.909H178.281ZM179.406 423.034L178.496 423.449L178.501 423.459L179.406 423.034ZM182.906 426.347L182.568 427.288L182.571 427.289L182.906 426.347ZM190.594 427.191V428.191H191.464L191.584 427.329L190.594 427.191ZM191.281 422.253L192.272 422.391L192.43 421.253H191.281V422.253ZM186.469 421.784L186.113 422.719L186.123 422.723L186.132 422.726L186.469 421.784ZM184.656 419.909L183.714 420.244L183.716 420.251L184.656 419.909ZM184.156 379.909H185.156V378.909H184.156V379.909ZM204.438 426.284L204.021 427.194L204.032 427.199L204.438 426.284ZM220.375 426.284L220.784 427.197L220.788 427.195L220.375 426.284ZM224.781 398.316L223.913 398.812L223.916 398.817L224.781 398.316ZM220.375 394.566L219.958 395.475L219.97 395.48L220.375 394.566ZM204.438 394.566L204.846 395.478L204.851 395.476L204.438 394.566ZM200.062 398.316L199.194 397.82L199.192 397.823L200.062 398.316ZM200.062 422.534L199.192 423.027L199.197 423.035L200.062 422.534ZM218.062 421.909L218.549 422.783L218.553 422.781L218.062 421.909ZM206.75 421.909L206.248 422.775L206.256 422.779L206.263 422.783L206.75 421.909ZM206.75 398.941L206.254 398.072L206.248 398.076L206.75 398.941ZM218.062 398.941L217.566 399.809L217.572 399.812L218.062 398.941ZM256.812 437.909L256.309 437.046L256.298 437.052L256.812 437.909ZM261.062 433.097L260.14 432.711L260.137 432.719L261.062 433.097ZM262.344 393.816H263.344V392.816H262.344V393.816ZM256.469 393.816V392.816H255.469V393.816H256.469ZM256.469 396.472L255.611 396.986L257.469 400.082V396.472H256.469ZM251.438 393.691L251.167 394.653L251.172 394.655L251.438 393.691ZM238.438 396.191L237.738 395.476L237.734 395.48L238.438 396.191ZM238.5 422.972L237.84 423.723L237.844 423.726L238.5 422.972ZM250.75 425.472L250.883 426.463L250.893 426.462L250.902 426.46L250.75 425.472ZM253.938 424.722L254.242 425.674L254.254 425.671L253.938 424.722ZM256.469 423.316H257.469V421.014L255.786 422.585L256.469 423.316ZM254.562 433.409L253.873 432.685L253.867 432.69L254.562 433.409ZM240 434.034L240.349 433.097L239.347 432.724L239.042 433.749L240 434.034ZM238.688 438.441L237.729 438.155L237.462 439.051L238.338 439.378L238.688 438.441ZM243.469 420.097L243.011 420.986L243.022 420.991L243.469 420.097ZM243.312 399.097L242.749 398.271L242.743 398.275L243.312 399.097ZM254.594 398.909L254.042 399.744L254.05 399.749L254.059 399.754L254.594 398.909ZM256.469 418.691L257.102 419.465L257.469 419.165V418.691H256.469ZM278.062 426.284L277.646 427.194L277.657 427.199L278.062 426.284ZM294 426.284L294.409 427.197L294.413 427.195L294 426.284ZM298.406 398.316L297.538 398.812L297.541 398.817L298.406 398.316ZM294 394.566L293.583 395.475L293.595 395.48L294 394.566ZM278.062 394.566L278.471 395.478L278.476 395.476L278.062 394.566ZM273.688 398.316L272.819 397.82L272.817 397.823L273.688 398.316ZM273.688 422.534L272.817 423.027L272.822 423.035L273.688 422.534ZM291.688 421.909L292.174 422.783L292.178 422.781L291.688 421.909ZM280.375 421.909L279.873 422.775L279.881 422.779L279.888 422.783L280.375 421.909ZM280.375 398.941L279.879 398.072L279.873 398.076L280.375 398.941ZM291.688 398.941L291.191 399.809L291.197 399.812L291.688 398.941ZM314.719 426.284L314.245 427.165L314.25 427.168L314.719 426.284ZM327.312 426.316L326.834 425.438L326.829 425.44L327.312 426.316ZM330.969 422.784L331.958 422.636L331.525 419.76L330.098 422.294L330.969 422.784ZM331.594 426.941L330.605 427.089L330.733 427.941H331.594V426.941ZM336.844 426.941V427.941H337.844V426.941H336.844ZM336.844 393.816H337.844V392.816H336.844V393.816ZM330.969 393.816V392.816H329.969V393.816H330.969ZM315.781 393.816H316.781V392.816H315.781V393.816ZM309.906 393.816V392.816H308.906V393.816H309.906ZM350.688 398.253H351.688V397.253H350.688V398.253ZM364.656 427.191V428.191H365.538L365.648 427.316L364.656 427.191ZM365.281 422.253L366.273 422.379L366.416 421.253H365.281V422.253ZM356.562 398.253V397.253H355.562V398.253H356.562ZM364.875 398.253V399.253H365.875V398.253H364.875ZM364.875 393.816H365.875V392.816H364.875V393.816ZM356.562 393.816H355.562V394.816H356.562V393.816ZM356.562 383.566H357.562V382.566H356.562V383.566ZM351.625 383.566V382.566H350.693L350.627 383.496L351.625 383.566ZM350.906 393.816V394.816H351.839L351.904 393.886L350.906 393.816ZM345.156 393.816V392.816H344.156V393.816H345.156ZM345.156 398.253H344.156V399.253H345.156V398.253ZM270.5 -1C151.328 -1 54.7199 95.6081 54.7199 214.78H56.7199C56.7199 96.7127 152.433 1 270.5 1V-1ZM486.281 214.78C486.281 95.6082 389.672 -1 270.5 -1V1C388.568 1 484.281 96.7127 484.281 214.78H486.281ZM486.281 348.258V214.78H484.281V348.258H486.281ZM510 347.258H485.281V349.258H510V347.258ZM538 375.258C538 359.794 525.464 347.258 510 347.258V349.258C524.359 349.258 536 360.898 536 375.258H538ZM538 672.504V375.258H536V672.504H538ZM510 700.504C525.464 700.504 538 687.968 538 672.504H536C536 686.864 524.359 698.504 510 698.504V700.504ZM31 700.504H510V698.504H31V700.504ZM3 672.504C3 687.968 15.536 700.504 31 700.504V698.504C16.6406 698.504 5 686.864 5 672.504H3ZM3 375.258V672.504H5V375.258H3ZM31 347.258C15.536 347.258 3 359.794 3 375.258H5C5 360.898 16.6406 349.258 31 349.258V347.258ZM55.7199 347.258H31V349.258H55.7199V347.258ZM54.7199 214.78V348.258H56.7199V214.78H54.7199ZM272.3 86.4381C200.137 86.4381 141.638 144.938 141.638 217.101H143.638C143.638 146.042 201.242 88.4381 272.3 88.4381V86.4381ZM278.757 86.4381H272.3V88.4381H278.757V86.4381ZM409.419 217.101C409.419 144.938 350.92 86.4381 278.757 86.4381V88.4381C349.815 88.4381 407.419 146.042 407.419 217.101H409.419ZM409.103 226.262C409.313 223.235 409.419 220.18 409.419 217.101H407.419C407.419 220.134 407.314 223.143 407.108 226.124L409.103 226.262ZM408.412 225.193H408.105V227.193H408.412V225.193ZM409.412 251.104V226.193H407.412V251.104H409.412ZM408.419 250.104H408.412V252.104H408.419V250.104ZM409.419 349.752V251.104H407.419V349.752H409.419ZM141.919 350.752H408.419V348.752H141.919V350.752ZM140.919 292.955V349.752H142.919V292.955H140.919ZM141.422 293.955H141.919V291.955H141.422V293.955ZM140.422 220.214V292.955H142.422V220.214H140.422ZM142.674 219.214H141.422V221.214H142.674V219.214ZM141.638 217.101C141.638 218.149 141.65 219.195 141.674 220.238L143.674 220.191C143.65 219.164 143.638 218.134 143.638 217.101H141.638ZM235.583 496.578C235.583 481.667 247.672 469.578 262.583 469.578V467.578C246.567 467.578 233.583 480.562 233.583 496.578H235.583ZM235.583 534.742V496.578H233.583V534.742H235.583ZM235.711 537.383C235.627 536.514 235.583 535.634 235.583 534.742H233.583C233.583 535.698 233.63 536.643 233.72 537.576L235.711 537.383ZM223.372 570.963C223.372 558.334 227.952 546.826 235.472 538.134L233.959 536.825C226.132 545.874 221.372 557.844 221.372 570.963H223.372ZM270.5 620.034C244.509 620.034 223.372 598.102 223.372 570.963H221.372C221.372 599.131 243.331 622.034 270.5 622.034V620.034ZM317.628 570.963C317.628 598.102 296.491 620.034 270.5 620.034V622.034C297.67 622.034 319.628 599.131 319.628 570.963H317.628ZM305.528 538.133C313.048 546.826 317.628 558.334 317.628 570.963H319.628C319.628 557.844 314.869 545.874 307.041 536.825L305.528 538.133ZM305.416 534.742C305.416 535.633 305.373 536.514 305.289 537.382L307.28 537.575C307.37 536.643 307.416 535.698 307.416 534.742H305.416ZM305.416 496.578V534.742H307.416V496.578H305.416ZM278.416 469.578C293.328 469.578 305.416 481.667 305.416 496.578H307.416C307.416 480.562 294.433 467.578 278.416 467.578V469.578ZM262.583 469.578H278.416V467.578H262.583V469.578ZM179.281 415.753V379.909H177.281V415.753H179.281ZM180.316 422.62C179.655 421.169 179.281 418.912 179.281 415.753H177.281C177.281 419.011 177.658 421.608 178.496 423.449L180.316 422.62ZM183.245 425.406C181.957 424.943 180.982 424.04 180.312 422.61L178.501 423.459C179.373 425.32 180.73 426.626 182.568 427.288L183.245 425.406ZM188.906 426.191C186.558 426.191 184.681 425.916 183.241 425.405L182.571 427.289C184.298 427.903 186.421 428.191 188.906 428.191V426.191ZM190.594 426.191H188.906V428.191H190.594V426.191ZM190.291 422.115L189.603 427.053L191.584 427.329L192.272 422.391L190.291 422.115ZM190.25 423.253H191.281V421.253H190.25V423.253ZM186.132 422.726C187.168 423.096 188.564 423.253 190.25 423.253V421.253C188.645 421.253 187.519 421.098 186.805 420.843L186.132 422.726ZM183.716 420.251C184.144 421.428 184.954 422.277 186.113 422.719L186.825 420.85C186.234 420.625 185.835 420.224 185.596 419.568L183.716 420.251ZM183.156 415.816C183.156 417.645 183.323 419.146 183.714 420.244L185.598 419.574C185.323 418.798 185.156 417.569 185.156 415.816H183.156ZM183.156 379.909V415.816H185.156V379.909H183.156ZM178.281 380.909H184.156V378.909H178.281V380.909ZM212.438 426.628C209.201 426.628 206.689 426.189 204.843 425.37L204.032 427.199C206.228 428.172 209.049 428.628 212.438 428.628V426.628ZM219.966 425.372C218.143 426.189 215.653 426.628 212.438 426.628V428.628C215.806 428.628 218.607 428.172 220.784 427.197L219.966 425.372ZM223.916 422.033C223.124 423.401 221.834 424.524 219.962 425.374L220.788 427.195C222.958 426.211 224.605 424.835 225.647 423.035L223.916 422.033ZM225.156 417.097C225.156 418.984 224.734 420.619 223.916 422.033L225.647 423.035C226.661 421.283 227.156 419.294 227.156 417.097H225.156ZM225.156 403.753V417.097H227.156V403.753H225.156ZM223.916 398.817C224.734 400.231 225.156 401.867 225.156 403.753H227.156C227.156 401.556 226.661 399.567 225.647 397.815L223.916 398.817ZM219.97 395.48C221.835 396.307 223.122 397.427 223.913 398.812L225.649 397.82C224.607 395.996 222.957 394.616 220.78 393.651L219.97 395.48ZM212.438 394.191C215.65 394.191 218.137 394.64 219.958 395.475L220.792 393.657C218.613 392.658 215.808 392.191 212.438 392.191V394.191ZM204.851 395.476C206.694 394.64 209.203 394.191 212.438 394.191V392.191C209.047 392.191 206.223 392.658 204.024 393.655L204.851 395.476ZM200.931 398.812C201.724 397.424 203.003 396.304 204.846 395.478L204.029 393.653C201.872 394.619 200.235 395.999 199.194 397.82L200.931 398.812ZM199.719 403.753C199.719 401.863 200.132 400.224 200.933 398.808L199.192 397.823C198.201 399.574 197.719 401.56 197.719 403.753H199.719ZM199.719 417.097V403.753H197.719V417.097H199.719ZM200.933 422.042C200.132 420.627 199.719 418.988 199.719 417.097H197.719C197.719 419.29 198.201 421.276 199.192 423.027L200.933 422.042ZM204.854 425.375C203.003 424.527 201.721 423.404 200.928 422.033L199.197 423.035C200.237 424.832 201.872 426.208 204.021 427.193L204.854 425.375ZM212.438 424.128C214.839 424.128 216.897 423.704 218.549 422.783L217.576 421.036C216.312 421.74 214.619 422.128 212.438 422.128V424.128ZM206.263 422.783C207.918 423.705 209.998 424.128 212.438 424.128V422.128C210.21 422.128 208.499 421.739 207.237 421.036L206.263 422.783ZM203.594 417.597C203.594 419.9 204.428 421.719 206.248 422.775L207.252 421.044C206.197 420.433 205.594 419.377 205.594 417.597H203.594ZM203.594 403.253V417.597H205.594V403.253H203.594ZM206.248 398.076C204.428 399.131 203.594 400.95 203.594 403.253H205.594C205.594 401.473 206.197 400.417 207.252 399.806L206.248 398.076ZM212.438 396.691C209.995 396.691 207.911 397.126 206.254 398.072L207.246 399.809C208.506 399.089 210.214 398.691 212.438 398.691V396.691ZM218.559 398.072C216.904 397.127 214.842 396.691 212.438 396.691V398.691C214.616 398.691 216.304 399.088 217.566 399.809L218.559 398.072ZM221.281 403.253C221.281 400.937 220.416 399.119 218.553 398.069L217.572 399.812C218.667 400.429 219.281 401.486 219.281 403.253H221.281ZM221.281 417.597V403.253H219.281V417.597H221.281ZM218.553 422.781C220.416 421.731 221.281 419.913 221.281 417.597H219.281C219.281 419.364 218.667 420.421 217.572 421.038L218.553 422.781ZM248.688 438.691C246.484 438.691 244.608 438.598 243.054 438.416L242.821 440.403C244.475 440.596 246.433 440.691 248.688 440.691V438.691ZM256.298 437.052C254.532 438.111 252.026 438.691 248.688 438.691V440.691C252.224 440.691 255.134 440.083 257.327 438.767L256.298 437.052ZM260.137 432.719C259.391 434.546 258.128 435.984 256.309 437.046L257.316 438.773C259.497 437.501 261.067 435.731 261.988 433.475L260.137 432.719ZM261.344 426.159C261.344 428.632 260.935 430.81 260.14 432.711L261.985 433.483C262.898 431.3 263.344 428.853 263.344 426.159H261.344ZM261.344 393.816V426.159H263.344V393.816H261.344ZM256.469 394.816H262.344V392.816H256.469V394.816ZM257.469 396.472V393.816H255.469V396.472H257.469ZM254.146 395.819C255.005 396.287 255.435 396.692 255.611 396.986L257.326 395.957C256.878 395.21 256.078 394.594 255.104 394.063L254.146 395.819ZM251.172 394.655C252.32 394.972 253.309 395.362 254.146 395.819L255.104 394.063C254.108 393.52 252.972 393.077 251.703 392.727L251.172 394.655ZM247.969 394.191C248.994 394.191 250.059 394.342 251.167 394.653L251.708 392.728C250.441 392.372 249.193 392.191 247.969 392.191V394.191ZM239.137 396.905C240.916 395.163 243.787 394.191 247.969 394.191V392.191C243.525 392.191 240.043 393.218 237.738 395.476L239.137 396.905ZM236.406 404.191C236.406 401.075 237.343 398.681 239.141 396.901L237.734 395.48C235.491 397.7 234.406 400.64 234.406 404.191H236.406ZM236.406 415.097V404.191H234.406V415.097H236.406ZM239.16 422.221C237.366 420.644 236.406 418.325 236.406 415.097H234.406C234.406 418.744 235.509 421.675 237.84 423.723L239.16 422.221ZM247.969 424.691C243.858 424.691 240.982 423.806 239.156 422.217L237.844 423.726C240.184 425.763 243.621 426.691 247.969 426.691V424.691ZM250.617 424.481C249.561 424.623 248.681 424.691 247.969 424.691V426.691C248.798 426.691 249.773 426.613 250.883 426.463L250.617 424.481ZM253.633 423.77C252.641 424.087 251.63 424.325 250.598 424.484L250.902 426.46C252.037 426.286 253.151 426.024 254.242 425.674L253.633 423.77ZM255.786 422.585C255.294 423.045 254.588 423.451 253.621 423.773L254.254 425.671C255.412 425.285 256.394 424.753 257.151 424.047L255.786 422.585ZM257.469 427.909V423.316H255.469V427.909H257.469ZM255.252 434.134C256.79 432.671 257.469 430.529 257.469 427.909H255.469C255.469 430.206 254.877 431.731 253.873 432.685L255.252 434.134ZM248.406 436.222C251.362 436.222 253.732 435.603 255.258 434.128L253.867 432.69C252.893 433.633 251.159 434.222 248.406 434.222V436.222ZM243.576 435.868C245.204 436.104 246.815 436.222 248.406 436.222V434.222C246.914 434.222 245.4 434.111 243.862 433.888L243.576 435.868ZM239.651 434.972C240.643 435.341 241.962 435.634 243.576 435.868L243.862 433.888C242.309 433.664 241.149 433.395 240.349 433.097L239.651 434.972ZM239.646 438.726L240.958 434.32L239.042 433.749L237.729 438.155L239.646 438.726ZM243.054 438.416C241.512 438.236 240.176 437.928 239.037 437.504L238.338 439.378C239.657 439.87 241.155 440.208 242.821 440.403L243.054 438.416ZM248.875 422.191C251.139 422.191 253.025 421.86 254.44 421.104L253.497 419.34C252.496 419.875 250.986 420.191 248.875 420.191V422.191ZM243.022 420.991C244.655 421.808 246.621 422.191 248.875 422.191V420.191C246.837 420.191 245.199 419.844 243.916 419.202L243.022 420.991ZM240.281 416.003C240.281 418.264 241.144 420.026 243.011 420.986L243.926 419.208C242.877 418.668 242.281 417.701 242.281 416.003H240.281ZM240.281 403.566V416.003H242.281V403.566H240.281ZM242.743 398.275C241.054 399.444 240.281 401.285 240.281 403.566H242.281C242.281 401.763 242.863 400.624 243.882 399.919L242.743 398.275ZM248.844 396.691C246.406 396.691 244.343 397.184 242.749 398.271L243.876 399.923C245.032 399.135 246.656 398.691 248.844 398.691V396.691ZM255.145 398.075C253.669 397.1 251.512 396.691 248.844 396.691V398.691C251.384 398.691 253.06 399.094 254.042 399.744L255.145 398.075ZM257.469 402.253C257.469 400.461 256.658 399.033 255.129 398.065L254.059 399.754C255.029 400.369 255.469 401.17 255.469 402.253H257.469ZM257.469 418.691V402.253H255.469V418.691H257.469ZM254.44 421.104C255.651 420.457 256.561 419.907 257.102 419.465L255.836 417.917C255.46 418.224 254.703 418.695 253.497 419.34L254.44 421.104ZM286.062 426.628C282.826 426.628 280.314 426.189 278.468 425.37L277.657 427.199C279.853 428.172 282.674 428.628 286.062 428.628V426.628ZM293.591 425.372C291.768 426.189 289.278 426.628 286.062 426.628V428.628C289.431 428.628 292.232 428.172 294.409 427.197L293.591 425.372ZM297.541 422.033C296.749 423.401 295.459 424.524 293.587 425.374L294.413 427.195C296.583 426.211 298.23 424.835 299.272 423.035L297.541 422.033ZM298.781 417.097C298.781 418.984 298.359 420.619 297.541 422.033L299.272 423.035C300.286 421.283 300.781 419.294 300.781 417.097H298.781ZM298.781 403.753V417.097H300.781V403.753H298.781ZM297.541 398.817C298.359 400.231 298.781 401.867 298.781 403.753H300.781C300.781 401.556 300.286 399.567 299.272 397.815L297.541 398.817ZM293.595 395.48C295.46 396.307 296.747 397.427 297.538 398.812L299.275 397.82C298.233 395.996 296.582 394.616 294.405 393.651L293.595 395.48ZM286.062 394.191C289.275 394.191 291.763 394.64 293.583 395.475L294.417 393.657C292.237 392.658 289.433 392.191 286.062 392.191V394.191ZM278.476 395.476C280.319 394.64 282.828 394.191 286.062 394.191V392.191C282.672 392.191 279.848 392.658 277.649 393.655L278.476 395.476ZM274.556 398.812C275.349 397.424 276.628 396.304 278.471 395.478L277.654 393.653C275.497 394.619 273.86 395.999 272.819 397.82L274.556 398.812ZM273.344 403.753C273.344 401.863 273.757 400.224 274.558 398.808L272.817 397.823C271.826 399.574 271.344 401.56 271.344 403.753H273.344ZM273.344 417.097V403.753H271.344V417.097H273.344ZM274.558 422.042C273.757 420.627 273.344 418.988 273.344 417.097H271.344C271.344 419.29 271.826 421.276 272.817 423.027L274.558 422.042ZM278.479 425.375C276.628 424.527 275.346 423.404 274.553 422.033L272.822 423.035C273.862 424.832 275.497 426.208 277.646 427.193L278.479 425.375ZM286.062 424.128C288.464 424.128 290.522 423.704 292.174 422.783L291.201 421.036C289.936 421.74 288.244 422.128 286.062 422.128V424.128ZM279.888 422.783C281.543 423.705 283.623 424.128 286.062 424.128V422.128C283.835 422.128 282.124 421.739 280.862 421.036L279.888 422.783ZM277.219 417.597C277.219 419.9 278.053 421.719 279.873 422.775L280.877 421.044C279.822 420.433 279.219 419.377 279.219 417.597H277.219ZM277.219 403.253V417.597H279.219V403.253H277.219ZM279.873 398.076C278.053 399.131 277.219 400.95 277.219 403.253H279.219C279.219 401.473 279.822 400.417 280.877 399.806L279.873 398.076ZM286.062 396.691C283.62 396.691 281.536 397.126 279.879 398.072L280.871 399.809C282.131 399.089 283.839 398.691 286.062 398.691V396.691ZM292.184 398.072C290.529 397.127 288.467 396.691 286.062 396.691V398.691C288.241 398.691 289.929 399.088 291.191 399.809L292.184 398.072ZM294.906 403.253C294.906 400.937 294.041 399.119 292.178 398.069L291.197 399.812C292.292 400.429 292.906 401.486 292.906 403.253H294.906ZM294.906 417.597V403.253H292.906V417.597H294.906ZM292.178 422.781C294.041 421.731 294.906 419.913 294.906 417.597H292.906C292.906 419.364 292.292 420.421 291.197 421.038L292.178 422.781ZM321.312 426.628C318.704 426.628 316.683 426.195 315.188 425.401L314.25 427.168C316.129 428.165 318.505 428.628 321.312 428.628V426.628ZM326.829 425.44C325.435 426.211 323.615 426.628 321.312 426.628V428.628C323.844 428.628 326.023 428.171 327.796 427.191L326.829 425.44ZM330.098 422.294C329.363 423.597 328.286 424.645 326.834 425.438L327.791 427.194C329.547 426.236 330.908 424.93 331.84 423.275L330.098 422.294ZM332.583 426.792L331.958 422.636L329.98 422.933L330.605 427.089L332.583 426.792ZM336.844 425.941H331.594V427.941H336.844V425.941ZM335.844 393.816V426.941H337.844V393.816H335.844ZM330.969 394.816H336.844V392.816H330.969V394.816ZM331.969 417.284V393.816H329.969V417.284H331.969ZM329.542 421.998C331.074 420.627 331.969 419.053 331.969 417.284H329.969C329.969 418.308 329.468 419.38 328.208 420.508L329.542 421.998ZM322.469 424.128C325.463 424.128 327.886 423.481 329.542 421.998L328.208 420.508C327.072 421.526 325.224 422.128 322.469 422.128V424.128ZM316.989 422.55C318.423 423.637 320.284 424.128 322.469 424.128V422.128C320.57 422.128 319.181 421.702 318.198 420.956L316.989 422.55ZM314.781 417.909C314.781 419.837 315.508 421.426 316.989 422.55L318.198 420.956C317.263 420.247 316.781 419.273 316.781 417.909H314.781ZM314.781 393.816V417.909H316.781V393.816H314.781ZM309.906 394.816H315.781V392.816H309.906V394.816ZM310.906 417.878V393.816H308.906V417.878H310.906ZM311.949 422.26C311.257 420.93 310.906 419.475 310.906 417.878H308.906C308.906 419.781 309.327 421.555 310.176 423.184L311.949 422.26ZM315.192 425.404C313.678 424.59 312.615 423.538 311.949 422.26L310.176 423.184C311.051 424.864 312.427 426.188 314.245 427.165L315.192 425.404ZM351.688 417.472V398.253H349.688V417.472H351.688ZM354.402 424.236C352.683 423.078 351.688 420.941 351.688 417.472H349.688C349.688 421.294 350.797 424.22 353.285 425.895L354.402 424.236ZM363.781 426.191C359.323 426.191 356.256 425.484 354.402 424.236L353.285 425.895C355.639 427.48 359.197 428.191 363.781 428.191V426.191ZM364.656 426.191H363.781V428.191H364.656V426.191ZM364.289 422.128L363.664 427.065L365.648 427.316L366.273 422.379L364.289 422.128ZM364.625 423.253H365.281V421.253H364.625V423.253ZM358.064 422.216C359.568 422.943 361.799 423.253 364.625 423.253V421.253C361.868 421.253 360.016 420.938 358.936 420.416L358.064 422.216ZM355.562 417.097C355.562 419.444 356.264 421.344 358.064 422.216L358.936 420.416C358.153 420.037 357.562 419.125 357.562 417.097H355.562ZM355.562 398.253V417.097H357.562V398.253H355.562ZM364.875 397.253H356.562V399.253H364.875V397.253ZM363.875 393.816V398.253H365.875V393.816H363.875ZM356.562 394.816H364.875V392.816H356.562V394.816ZM355.562 383.566V393.816H357.562V383.566H355.562ZM351.625 384.566H356.562V382.566H351.625V384.566ZM351.904 393.886L352.623 383.636L350.627 383.496L349.909 393.746L351.904 393.886ZM345.156 394.816H350.906V392.816H345.156V394.816ZM346.156 398.253V393.816H344.156V398.253H346.156ZM350.688 397.253H345.156V399.253H350.688V397.253Z" fill="black" mask="url(#path-1-inside-1_91_19)"/>
</g>
<defs>
<filter id="filter0_d_91_19" x="0" y="0" width="541" height="707.504" filterUnits="userSpaceOnUse" color-interpolation-filters="sRGB">
<feFlood flood-opacity="0" result="BackgroundImageFix"/>
<feColorMatrix in="SourceAlpha" type="matrix" values="0 0 0 0 0 0 0 0 0 0 0 0 0 0 0 0 0 0 127 0" result="hardAlpha"/>
<feOffset dy="4"/>
<feGaussianBlur stdDeviation="2"/>
<feComposite in2="hardAlpha" operator="out"/>
<feColorMatrix type="matrix" values="0 0 0 0 0 0 0 0 0 0 0 0 0 0 0 0 0 0 0.25 0"/>
<feBlend mode="normal" in2="BackgroundImageFix" result="effect1_dropShadow_91_19"/>
<feBlend mode="normal" in="SourceGraphic" in2="effect1_dropShadow_91_19" result="shape"/>
</filter>
</defs>
</svg>
