<svg width="533" height="712" viewBox="0 0 533 712" fill="none" xmlns="http://www.w3.org/2000/svg">
<path fill-rule="evenodd" clip-rule="evenodd" d="M51.7197 214.78C51.7197 96.1605 147.88 0 266.5 0C385.12 0 481.28 96.1604 481.28 214.78V354.096H506C520.912 354.096 533 366.185 533 381.096V684.232C533 699.144 520.912 711.232 506 711.232H27C12.0883 711.232 0 699.144 0 684.232V381.096C0 366.185 12.0883 354.096 27 354.096H31.6064V355.616L137.919 355.616L180.301 355.616L404.419 355.616V293.68C404.569 293.068 404.649 292.427 404.649 291.769V233.146C404.649 232.098 404.447 231.096 404.081 230.179C404.305 227.061 404.419 223.914 404.419 220.74C404.419 147.929 344.34 88.9039 271.528 88.9039C200.31 88.9039 141.272 145.375 138.723 215.983C138.349 217.385 138.149 218.86 138.149 220.381V255.314H137.919V297.866H51.7197V214.78ZM258.584 476.434C243.12 476.434 230.584 488.97 230.584 504.434V544.177C230.584 544.97 230.616 545.755 230.681 546.531C223.028 555.545 218.372 567.465 218.372 580.535C218.372 608.653 239.919 631.446 266.5 631.446C293.08 631.446 314.628 608.653 314.628 580.535C314.628 567.465 309.972 555.546 302.319 546.531C302.383 545.755 302.416 544.97 302.416 544.177V504.434C302.416 488.97 289.88 476.434 274.416 476.434H258.584Z" fill="#22577A"/>
</svg>
