<svg width="846" height="744" viewBox="0 0 846 744" fill="none" xmlns="http://www.w3.org/2000/svg">
<path d="M108.67 167.682C100.901 183.77 93.6377 200.198 88.9083 219.165C91.9486 217.133 93.8066 216.117 95.6646 214.762C112.555 201.891 131.642 193.593 152.586 190.544C156.64 189.867 161.201 190.544 165.423 191.561C169.984 192.746 171.335 196.302 169.139 200.706C167.45 204.093 165.085 207.48 162.383 209.851C144.985 224.923 125.054 234.407 102.421 237.794C96.5091 238.641 90.2595 237.624 83.6722 237.624C79.9562 254.39 76.4092 272.172 77.2537 290.801C78.436 289.277 79.4495 287.753 80.8007 286.229C94.82 266.922 112.724 252.866 135.02 244.399C138.398 243.213 142.114 242.536 145.492 242.536C151.235 242.705 153.938 246.939 151.404 251.85C148.364 258.285 144.817 264.89 140.256 269.971C126.575 285.551 110.528 297.406 90.5974 304.349C85.3612 306.043 80.6318 306.382 76.0713 303.503C73.1999 311.293 75.2268 347.704 79.6184 364.3C80.8007 362.437 81.8142 361.252 82.6587 359.558C91.1041 340.591 103.941 325.01 120.494 312.14C124.379 309.091 129.108 306.551 133.838 304.857C140.594 302.317 144.985 305.704 143.972 312.648C143.127 318.575 141.101 324.672 138.398 330.091C129.953 346.857 118.129 361.082 103.096 372.429C97.1847 377.002 90.4285 380.558 81.9831 380.558C86.0369 400.203 91.9486 418.662 99.7183 437.46C101.745 430.178 103.265 423.743 105.461 417.646C111.373 401.727 119.987 387.501 131.642 375.308C135.358 371.413 139.918 368.026 144.479 365.655C150.222 362.607 154.951 365.486 154.782 372.09C154.613 378.864 153.6 385.977 151.404 392.582C145.661 410.195 136.202 425.606 122.859 438.985C118.129 443.727 112.893 448.299 104.279 448.13C112.386 466.25 121.676 482.847 132.824 498.427C134.851 486.403 136.371 475.057 139.243 463.879C142.621 450.67 148.195 437.969 156.809 427.13C159.005 424.251 162.214 421.541 165.254 419.509C169.815 416.63 173.024 417.816 174.882 423.065C175.895 425.944 176.571 428.993 176.571 432.211C176.74 456.767 168.97 478.952 155.12 498.766C151.742 503.339 146.675 506.556 141.776 510.959C153.093 525.524 165.254 540.088 180.118 552.959C179.949 540.766 179.274 529.419 179.78 518.072C180.118 505.032 183.496 492.669 188.901 480.815C190.084 478.105 191.773 475.226 193.631 473.024C199.036 465.912 204.61 466.589 208.157 474.887C210.184 480.137 211.704 485.895 212.042 491.145C213.562 508.927 211.028 526.032 205.285 542.798C202.752 550.419 199.036 557.531 192.448 562.443C197.853 569.894 221.332 587.337 236.026 594.958C234.337 587.337 232.479 580.055 231.635 572.604C229.777 555.499 229.608 538.056 235.52 521.29C236.533 518.242 238.053 515.024 240.08 512.314C243.965 506.726 248.694 506.726 252.41 512.484C254.944 516.379 256.971 520.782 257.984 525.185C263.558 547.37 263.727 569.725 256.126 591.402C254.606 595.297 251.566 598.684 249.032 602.24C248.357 603.257 246.499 604.103 246.836 604.95C247.005 613.418 240.418 616.297 234.675 619.176C215.251 628.49 194.644 632.046 173.193 630.692C167.45 630.353 161.369 629.506 155.796 627.643C147.519 624.764 146.843 619.514 153.6 613.926C162.214 606.474 173.024 603.595 183.665 600.886C198.867 596.991 214.575 596.144 230.621 596.313C216.602 585.983 202.414 575.483 188.057 564.814C169.984 578.7 148.195 579.378 126.237 578.192C118.129 577.854 110.022 576.16 101.914 574.297C96.678 573.112 90.4284 571.249 90.0906 564.983C89.7528 558.548 96.0024 556.515 101.07 554.652C117.285 548.048 134.682 547.37 152.08 548.217C158.498 548.386 164.748 549.402 171.842 550.249C159.849 536.532 148.364 523.322 137.216 510.282C108.164 521.29 80.4629 516.209 53.2689 503.169C50.5664 501.984 48.0327 499.782 46.0059 497.581C41.6143 493.008 42.2899 488.605 47.8638 485.726C50.9042 484.032 54.6201 483.016 57.9983 482.678C78.436 479.799 98.0293 483.355 117.285 490.129C119.312 490.976 121.338 491.653 125.054 492.839C116.947 478.274 109.853 465.404 102.59 452.363C83.3344 457.105 66.2747 450.839 49.7218 442.88C40.6008 438.307 32.3244 431.872 23.879 426.114C21.6832 424.42 19.8252 422.219 18.3051 419.848C13.5757 412.735 15.6026 407.993 24.2168 407.146C35.7025 405.961 46.8504 408.332 57.4916 412.904C67.9638 417.477 78.0982 423.404 88.2327 428.823C89.415 429.501 90.9352 430.009 92.9621 431.025C87.7259 413.412 82.9965 396.647 78.0982 379.711C53.1 379.711 33.5067 366.502 15.4337 350.921C9.85972 346.179 5.46814 339.744 1.75218 333.309C-2.30159 326.535 0.907638 321.454 9.01518 321.962C14.9269 322.301 21.1765 323.825 26.9194 325.857C42.7966 331.784 56.8159 340.591 68.9772 352.784C70.4974 354.308 72.0176 355.324 74.7201 357.526C73.5377 339.067 72.1865 322.301 71.173 306.382C65.9369 305.196 60.7008 304.857 56.4781 302.656C33.8446 291.14 16.4471 273.866 5.13033 250.665C2.93453 246.092 1.24545 241.012 4.7925 236.778C8.67737 232.205 14.0824 234.915 18.474 236.778C36.0403 244.399 49.2151 257.439 60.7008 272.172C65.0924 277.592 68.3016 283.688 72.5243 289.954C75.2268 271.834 77.9293 253.882 80.8007 235.931C66.2747 231.358 58.1672 219.842 50.2285 207.988C41.9521 195.625 35.3647 182.077 32.6622 167.004C32.6622 166.666 32.3244 165.988 32.3244 165.48C31.4798 160.738 31.3109 155.489 35.7025 152.61C40.0941 149.731 44.6546 152.271 48.5395 155.15C61.3764 164.634 69.6529 177.674 76.5781 191.561C80.4629 199.012 83.1654 207.141 86.7125 215.101C93.8066 198.165 100.563 181.399 107.488 163.956C100.394 164.295 96.3402 160.23 92.6242 154.98C81.8142 139.908 76.747 122.973 73.7066 104.852C72.1865 96.5538 71.173 88.5942 73.7066 80.4653C76.4092 71.8283 81.8142 70.3042 88.4016 76.7396C96.5091 84.8685 100.732 94.8603 104.617 105.36C110.191 120.263 113.231 135.505 112.217 151.424C112.217 152.101 112.386 152.609 112.555 153.626C123.534 137.368 134.344 121.11 145.492 104.344C135.864 96.5538 134.344 84.8685 133.669 72.8445C132.655 55.4012 133.331 38.2966 139.918 21.7C141.438 18.1436 143.296 14.5872 145.661 11.7082C149.377 7.13569 154.106 7.13569 156.978 12.3856C159.849 17.2968 161.876 23.2242 162.89 28.6435C165.761 46.2561 165.085 63.5301 160.863 80.9734C160.525 82.6669 160.187 84.5298 159.849 87.5781C162.045 85.8846 163.565 85.0379 164.579 84.0217C168.632 80.1266 172.686 76.2315 176.571 71.9977C178.091 70.4735 179.611 68.6107 179.949 67.0865C180.794 57.6027 185.692 50.1512 191.435 43.0384C202.245 29.6596 214.575 17.9743 229.777 10.0147C233.831 7.98245 238.222 6.11957 242.614 5.10346C250.384 3.24058 254.775 7.81309 252.748 15.434C252.073 17.6355 251.059 19.8371 250.046 21.8694C237.378 43.5465 219.642 60.143 196.671 70.4735C192.279 72.3364 187.043 72.3364 181.976 73.3525C181.807 72.6751 181.301 72.167 181.132 71.4896C172.855 80.1266 164.579 88.933 155.627 98.4167C165.93 97.7393 174.544 96.2151 183.327 96.7232C200.049 97.9086 216.602 100.449 231.635 108.747C234.506 110.441 237.378 112.304 239.742 114.675C243.796 119.078 243.289 123.312 237.716 125.852C233.155 127.884 228.088 129.578 223.021 129.916C202.245 131.948 181.976 129.239 162.721 120.602C157.316 118.062 152.586 113.997 146.843 110.102C136.709 122.126 127.419 136.352 117.96 152.779C123.872 150.747 128.433 149.053 132.993 147.868C152.417 143.126 172.011 140.416 191.604 146.005C194.982 147.021 198.36 148.545 201.232 150.577C204.948 153.287 205.116 156.505 201.907 159.892C199.374 162.432 196.502 164.803 193.293 166.158C170.153 175.811 146.337 178.52 121.676 172.593C116.609 171.746 112.893 169.545 108.67 167.682Z" fill="black"/>
<path d="M708.291 507.403C696.974 520.443 685.657 533.483 673.158 547.709C678.563 547.031 682.786 546.862 687.177 546.015C705.588 542.967 723.492 545.677 741.228 550.927C744.606 551.943 747.815 553.806 750.686 555.668C756.26 559.564 756.429 564.305 750.518 567.862C746.126 570.402 741.228 572.773 736.329 573.62C714.878 577.176 693.258 577.346 672.145 570.741C666.74 569.047 661.841 565.322 656.436 562.443C643.262 572.096 629.411 582.257 615.73 592.418C615.73 593.095 615.73 593.434 615.899 594.111C622.317 594.111 628.904 593.773 635.323 594.111C651.876 595.128 667.922 598.684 682.786 606.305C685.826 607.998 689.035 610.031 691.4 612.74C694.947 616.297 694.272 620.869 689.88 623.071C686.84 624.764 683.293 626.119 679.745 626.797C656.605 629.676 634.141 627.135 612.52 618.16C605.257 615.111 597.826 612.402 595.63 602.918C594.785 599.361 589.38 597.16 588.198 593.603C585.326 585.813 582.793 577.515 581.779 569.047C579.921 553.128 580.09 537.04 585.157 521.459C586.171 518.072 587.691 514.685 589.549 511.467C593.434 505.201 599.515 504.863 602.724 511.467C606.271 518.58 608.973 526.201 610.325 533.822C613.872 552.79 612.858 571.926 606.44 590.216C606.102 591.063 606.271 592.249 606.271 594.111C623.331 584.458 638.532 573.281 653.227 560.58C639.546 548.556 636.674 532.637 634.309 516.548C632.452 505.032 631.269 493.516 634.141 482C635.154 477.936 636.167 473.532 638.194 469.637C640.728 464.387 645.795 463.71 649.342 467.944C653.058 472.686 656.436 478.105 658.463 483.863C666.233 505.201 667.584 527.048 663.193 551.096C679.07 537.209 691.738 522.983 703.561 507.064C687.853 500.29 682.279 485.726 676.536 471.839C671.131 458.968 667.584 445.42 667.922 431.364C667.922 427.977 668.26 424.59 669.104 421.372C670.793 415.614 675.523 413.751 680.421 417.477C683.461 419.678 686.333 422.388 688.529 425.606C702.379 446.097 710.149 468.621 709.811 493.855C709.811 494.194 710.149 494.702 710.824 496.395C722.817 480.815 731.431 464.049 739.876 446.267C727.546 444.404 720.283 435.936 713.696 427.299C702.717 413.074 693.934 397.663 690.387 379.881C689.542 376.155 689.373 372.26 689.711 368.365C690.387 362.607 694.44 360.066 699.339 362.945C704.575 365.824 709.473 369.211 713.358 373.445C728.053 389.364 738.356 407.993 743.086 429.501C743.255 430.517 743.424 431.533 743.761 432.38C743.761 432.549 743.93 432.719 744.944 433.565C752.713 415.783 757.95 397.832 762.341 379.203C738.863 373.953 725.182 356.849 712.851 338.728C708.291 331.954 705.25 324.164 701.703 316.881C701.028 315.357 700.69 314.002 700.521 312.478C699.508 303.333 704.068 299.269 712.345 303.164C719.101 306.551 725.688 310.785 731.6 316.035C744.944 328.059 755.923 341.946 762.679 358.881C763.017 360.066 763.861 361.082 765.381 363.623C769.097 341.946 770.618 321.793 770.111 300.962C761.834 305.365 754.571 302.994 747.477 299.777C727.884 290.801 711.162 278.1 698.663 260.487C696.13 256.931 694.272 252.866 693.258 248.632C691.738 243.044 694.272 239.995 700.014 240.334C704.913 240.673 710.318 241.52 714.878 243.721C734.64 252.697 751.362 265.906 764.199 283.688C765.381 285.382 766.733 286.737 768.76 289.446C768.928 269.801 765.044 252.189 761.328 234.576C732.276 238.979 708.966 226.786 686.84 210.867C682.786 207.988 679.239 203.754 676.536 199.52C672.989 194.101 674.678 190.375 681.097 188.512C689.204 185.972 696.974 188.343 704.575 190.375C722.479 195.117 738.863 203.246 753.051 215.27C753.896 215.947 754.74 216.286 756.767 217.302C751.362 198.335 744.437 181.23 735.992 164.633C727.884 170.391 719.101 172.254 709.811 172.762C689.88 173.779 670.118 172.424 651.876 163.279C647.484 161.077 642.417 158.537 642.586 152.948C642.755 147.19 648.498 145.666 653.058 144.311C665.895 140.416 679.07 139.908 692.076 141.771C703.561 143.464 715.216 146.343 727.377 149.053C719.777 134.15 709.811 120.432 699.17 106.884C686.84 121.11 670.118 123.989 653.396 126.868C641.573 128.9 629.918 129.747 618.094 126.868C615.561 126.19 612.858 125.852 610.662 124.836C603.062 121.279 602.217 116.199 608.636 110.61C615.73 104.683 624.175 101.634 632.789 99.4328C649.68 95.0296 666.571 92.9974 683.968 96.0457C685.151 96.2151 686.502 96.0457 689.542 96.0457C681.941 85.7152 672.82 78.4331 664.713 69.6267C655.085 72.3364 646.809 68.4413 639.208 63.6994C623.668 54.2156 610.325 42.1916 600.19 26.9499C597.319 22.3774 594.785 17.4661 593.096 12.3856C591.069 6.62757 594.278 2.39376 600.528 3.07117C605.257 3.40987 610.156 4.93404 614.378 7.13562C632.789 16.7887 647.822 30.3369 658.97 47.9496C662.01 52.6915 663.361 58.7881 665.388 64.2074C665.726 65.3929 665.726 66.9171 666.571 67.7638C672.314 73.5218 678.056 79.2798 683.968 85.2071C684.306 85.0378 684.982 84.8684 685.488 84.3604C684.644 80.2959 683.799 76.0621 683.293 71.9976C680.421 54.0463 679.577 35.9256 685.151 18.4822C686.84 13.571 688.866 8.82915 694.44 6.62757C700.352 8.15174 703.055 12.8936 704.913 17.8048C714.034 41.3448 715.047 65.5623 708.629 89.949C707.446 94.6909 703.899 98.586 701.028 103.667C711.162 118.739 722.141 134.827 733.289 151.424C733.965 143.803 733.965 135.844 735.147 128.223C737.85 110.441 743.761 93.6748 754.065 78.7717C756.936 74.7073 760.652 69.1187 767.071 71.3202C773.32 73.3525 773.658 79.6185 773.658 85.0378C773.996 109.933 767.239 132.795 753.22 153.456C749.673 158.706 745.45 162.432 738.525 161.754C745.619 178.859 752.376 195.625 759.639 213.746C760.652 210.867 761.665 209.004 762.341 206.972C768.76 188.343 778.218 171.746 792.238 158.029C794.94 155.319 798.149 153.118 801.528 151.255C808.284 147.36 813.689 150.069 813.52 157.859C813.351 164.295 812 170.73 809.973 176.658C804.061 193.762 795.109 209.512 782.103 222.552C777.374 227.294 771.124 230.681 765.044 235.253C767.577 251.173 770.28 268.616 773.151 287.583C775.178 284.535 776.529 282.333 777.881 280.132C789.873 261.334 804.906 245.753 825.175 235.592C830.073 233.052 836.154 230.681 840.376 234.576C844.768 238.641 842.234 244.907 839.701 249.648C828.722 271.156 812.338 287.583 791.224 299.099C786.326 301.809 780.076 302.486 774.165 304.349C773.151 320.099 771.969 336.865 770.618 355.155C773.32 352.954 775.009 351.768 776.36 350.583C789.197 337.712 804.23 328.397 821.121 322.639C826.019 320.946 831.593 319.93 836.998 319.93C844.43 319.76 847.47 324.841 843.417 331.276C839.363 337.881 834.296 344.486 828.384 349.905C814.196 362.607 798.318 372.429 779.232 376.324C775.347 377.171 771.124 377.34 766.902 378.018C762.003 394.614 756.936 411.38 751.869 429.331C754.065 428.146 755.585 427.469 756.767 426.452C773.32 415.275 790.886 407.485 810.649 404.945C815.04 404.267 819.601 404.775 823.654 405.791C829.059 406.977 830.917 411.211 827.539 415.783C823.823 421.033 819.263 425.944 814.365 429.67C798.656 441.525 780.921 448.976 761.497 451.855C755.585 452.702 749.335 451.686 741.903 451.517C735.316 463.541 727.884 476.75 720.452 490.129C732.782 487.081 744.606 483.355 756.598 481.153C768.76 479.121 781.428 478.444 793.251 482.339C796.291 483.355 799.838 485.895 801.021 488.774C802.879 492.839 799.501 496.226 796.291 498.258C789.873 501.814 783.286 505.709 776.36 507.911C758.794 513.5 740.89 516.548 722.479 512.822C717.75 511.298 713.358 509.097 708.291 507.403Z" fill="black"/>
<path d="M332.135 348.042C332.135 344.147 332.135 340.93 332.135 337.034C302.407 324.333 272.341 311.801 241.769 298.93C241.769 273.019 241.769 246.939 241.769 220.689C285.347 220.689 328.419 220.689 372.334 220.689C372.334 234.745 372.334 248.802 372.334 263.366C359.666 263.366 347.505 263.366 334.837 263.366C334.161 261.842 333.824 260.318 332.979 258.455C315.919 258.455 298.691 258.455 281.125 258.455C281.125 262.35 281.125 265.906 281.125 270.479C311.19 283.18 341.762 295.882 372.334 308.752C372.334 335.002 372.334 360.744 372.334 386.993C328.587 386.993 285.516 386.993 241.769 386.993C241.769 372.429 241.769 358.373 241.769 343.808C254.437 343.808 267.105 343.808 280.618 343.808C280.956 344.825 281.631 346.518 282.307 348.381C298.691 348.042 315.075 348.042 332.135 348.042Z" fill="black"/>
<path d="M475.368 390.719C475.368 378.356 475.368 366.502 475.368 354.308C478.07 354.139 480.604 353.631 483.644 353.292C500.366 308.583 517.088 263.705 533.81 218.996C544.958 218.996 555.43 218.996 566.578 218.996C583.131 263.027 599.346 307.398 615.899 351.768C618.094 352.107 620.29 352.446 623.162 352.784C623.162 365.147 623.162 377.679 623.162 390.719C573.841 390.719 525.027 390.719 475.368 390.719ZM521.986 350.752C535.33 352.615 570.463 351.937 575.868 349.736C567.422 328.228 558.977 306.551 550.531 285.043C549.856 285.043 549.349 285.213 548.674 285.213C539.721 306.72 530.938 328.397 521.986 350.752Z" fill="black"/>
<path d="M446.147 348.889C447.667 349.228 449.525 349.905 451.552 350.583C451.552 362.607 451.552 374.292 451.552 386.824C433.648 386.824 416.081 386.824 398.177 386.824C398.177 374.461 398.177 362.437 398.177 350.075C400.035 349.736 401.893 349.058 403.751 348.55C403.751 318.575 403.751 288.769 403.751 258.794C402.062 258.116 400.204 257.777 398.177 257.1C398.177 245.245 398.177 233.56 398.177 221.028C415.912 221.028 433.648 221.028 451.552 221.028C451.552 233.221 451.552 245.076 451.552 257.269C450.032 257.608 448.68 258.286 446.316 259.132C446.147 288.769 446.147 318.575 446.147 348.889Z" fill="black"/>
<path fill-rule="evenodd" clip-rule="evenodd" d="M428.485 475C382.869 475 345.889 511.979 345.889 557.596V609.871C334.427 612.992 326 623.475 326 635.925V717C326 731.912 338.088 744 353 744H503.969C518.881 744 530.969 731.912 530.969 717V635.925C530.969 623.475 522.542 612.992 511.08 609.871V557.595C511.08 511.979 474.101 475 428.485 475ZM429.177 508.625C401.639 508.625 379.314 530.949 379.314 558.488C379.314 558.888 379.319 559.287 379.328 559.685H378.847V587.658H379.038V609.5H481.523V571.564H481.52V561.984H481.402C481.482 560.829 481.523 559.663 481.523 558.488C481.523 530.949 459.198 508.625 431.66 508.625H429.177ZM414.673 669.008C414.673 661.379 420.857 655.196 428.485 655.196C436.113 655.196 442.297 661.379 442.297 669.008V677.595C442.297 678.847 442.13 680.06 441.818 681.214C445.022 684.676 446.993 689.383 446.993 694.568C446.993 705.203 438.706 713.824 428.485 713.824C418.263 713.824 409.977 705.203 409.977 694.568C409.977 689.383 411.947 684.676 415.152 681.214C414.839 680.06 414.673 678.847 414.673 677.595V669.008Z" fill="black"/>
<path d="M346.092 17.252V24.812H343.644V22.256H338.568V32.552H347.784V28.34H350.232V35H333.348V32.552H335.616V10.448H333.348V8H350.232V14.66H347.784V10.448H338.568V19.808H343.644V17.252H346.092ZM371.58 21.788C372.06 22.124 372.504 22.424 372.912 22.688C373.344 22.928 373.716 23.192 374.028 23.48C374.652 24.056 374.964 24.764 374.964 25.604V31.724C374.964 32.804 374.58 33.632 373.812 34.208C373.164 34.736 372.312 35 371.256 35H359.772V28.34H362.364V32.552H372.084V25.532L362.652 19.736C361.812 19.256 361.116 18.764 360.564 18.26C360.036 17.732 359.772 17.024 359.772 16.136V11.6C359.772 10.184 360.108 9.212 360.78 8.684C361.356 8.228 362.352 8 363.768 8H374.64V14.66H372.048V10.448H362.652V16.208L371.58 21.788ZM387.338 32.552H389.606V10.448H385.07V14.696H382.478V8H399.722V14.696H397.094V10.448H392.558V32.552H394.898V35H387.338V32.552ZM405.428 31.436C405.932 31.436 406.352 31.628 406.688 32.012C407.048 32.396 407.228 32.84 407.228 33.344C407.228 33.848 407.048 34.28 406.688 34.64C406.352 34.976 405.932 35.144 405.428 35.144C404.924 35.144 404.492 34.976 404.132 34.64C403.772 34.28 403.592 33.848 403.592 33.344C403.592 32.84 403.772 32.396 404.132 32.012C404.516 31.628 404.948 31.436 405.428 31.436ZM434.923 28.484C434.923 26.516 435.571 25.124 436.867 24.308L447.235 17.864V10.448H437.767V14.84H434.959V8H445.435C447.211 8 448.459 8.312 449.179 8.936C449.851 9.512 450.187 10.592 450.187 12.176V16.388C450.187 18.044 449.599 19.232 448.423 19.952L437.731 26.72V32.552H447.199V29.24H450.223V35H434.923V28.484ZM470.073 8C471.537 8 472.593 8.408 473.241 9.224C473.913 10.016 474.249 11.204 474.249 12.788V30.104C474.249 31.832 473.961 33.08 473.385 33.848C472.809 34.616 471.765 35 470.253 35H464.061C461.757 35 460.401 34.136 459.993 32.408C459.849 31.88 459.777 31.292 459.777 30.644V12.788C459.777 11.18 460.041 10.016 460.569 9.296C461.169 8.432 462.237 8 463.773 8H470.073ZM462.657 32.552H471.369V10.448H462.657V32.552ZM483.806 28.484C483.806 26.516 484.454 25.124 485.75 24.308L496.118 17.864V10.448H486.65V14.84H483.842V8H494.318C496.094 8 497.342 8.312 498.062 8.936C498.734 9.512 499.07 10.592 499.07 12.176V16.388C499.07 18.044 498.482 19.232 497.306 19.952L486.614 26.72V32.552H496.082V29.24H499.106V35H483.806V28.484ZM523.204 10.448L514.384 19.232H519.028C520.612 19.232 521.704 19.556 522.304 20.204C522.88 20.828 523.168 21.908 523.168 23.444V30.176C523.168 30.968 523.12 31.676 523.024 32.3C522.928 32.9 522.7 33.392 522.34 33.776C521.644 34.592 520.264 35 518.2 35H512.728C510.088 35 508.648 33.992 508.408 31.976C508.336 31.376 508.3 30.74 508.3 30.068V28.16H510.928V32.768H520.252V21.572H510.928V19.232L519.856 10.448H510.928V12.968H508.3V8H523.204V10.448Z" fill="black"/>
<path d="M346.092 17.252H348.092V15.252H346.092V17.252ZM346.092 24.812V26.812H348.092V24.812H346.092ZM343.644 24.812H341.644V26.812H343.644V24.812ZM343.644 22.256H345.644V20.256H343.644V22.256ZM338.568 22.256V20.256H336.568V22.256H338.568ZM338.568 32.552H336.568V34.552H338.568V32.552ZM347.784 32.552V34.552H349.784V32.552H347.784ZM347.784 28.34V26.34H345.784V28.34H347.784ZM350.232 28.34H352.232V26.34H350.232V28.34ZM350.232 35V37H352.232V35H350.232ZM333.348 35H331.348V37H333.348V35ZM333.348 32.552V30.552H331.348V32.552H333.348ZM335.616 32.552V34.552H337.616V32.552H335.616ZM335.616 10.448H337.616V8.448H335.616V10.448ZM333.348 10.448H331.348V12.448H333.348V10.448ZM333.348 8V6H331.348V8H333.348ZM350.232 8H352.232V6H350.232V8ZM350.232 14.66V16.66H352.232V14.66H350.232ZM347.784 14.66H345.784V16.66H347.784V14.66ZM347.784 10.448H349.784V8.448H347.784V10.448ZM338.568 10.448V8.448H336.568V10.448H338.568ZM338.568 19.808H336.568V21.808H338.568V19.808ZM343.644 19.808V21.808H345.644V19.808H343.644ZM343.644 17.252V15.252H341.644V17.252H343.644ZM344.092 17.252V24.812H348.092V17.252H344.092ZM346.092 22.812H343.644V26.812H346.092V22.812ZM345.644 24.812V22.256H341.644V24.812H345.644ZM343.644 20.256H338.568V24.256H343.644V20.256ZM336.568 22.256V32.552H340.568V22.256H336.568ZM338.568 34.552H347.784V30.552H338.568V34.552ZM349.784 32.552V28.34H345.784V32.552H349.784ZM347.784 30.34H350.232V26.34H347.784V30.34ZM348.232 28.34V35H352.232V28.34H348.232ZM350.232 33H333.348V37H350.232V33ZM335.348 35V32.552H331.348V35H335.348ZM333.348 34.552H335.616V30.552H333.348V34.552ZM337.616 32.552V10.448H333.616V32.552H337.616ZM335.616 8.448H333.348V12.448H335.616V8.448ZM335.348 10.448V8H331.348V10.448H335.348ZM333.348 10H350.232V6H333.348V10ZM348.232 8V14.66H352.232V8H348.232ZM350.232 12.66H347.784V16.66H350.232V12.66ZM349.784 14.66V10.448H345.784V14.66H349.784ZM347.784 8.448H338.568V12.448H347.784V8.448ZM336.568 10.448V19.808H340.568V10.448H336.568ZM338.568 21.808H343.644V17.808H338.568V21.808ZM345.644 19.808V17.252H341.644V19.808H345.644ZM343.644 19.252H346.092V15.252H343.644V19.252ZM371.58 21.788L372.726 20.1495L372.684 20.1196L372.64 20.092L371.58 21.788ZM372.912 22.688L371.825 24.3671L371.882 24.4037L371.94 24.4363L372.912 22.688ZM374.028 23.48L375.384 22.0104L375.384 22.0104L374.028 23.48ZM373.812 34.208L372.612 32.608L372.579 32.6321L372.548 32.6575L373.812 34.208ZM359.772 35H357.772V37H359.772V35ZM359.772 28.34V26.34H357.772V28.34H359.772ZM362.364 28.34H364.364V26.34H362.364V28.34ZM362.364 32.552H360.364V34.552H362.364V32.552ZM372.084 32.552V34.552H374.084V32.552H372.084ZM372.084 25.532H374.084V24.4136L373.131 23.828L372.084 25.532ZM362.652 19.736L363.699 18.032L363.672 18.0153L363.644 17.9995L362.652 19.736ZM360.564 18.26L359.149 19.6742L359.181 19.7063L359.215 19.737L360.564 18.26ZM360.78 8.684L362.015 10.2566L362.021 10.2521L360.78 8.684ZM374.64 8H376.64V6H374.64V8ZM374.64 14.66V16.66H376.64V14.66H374.64ZM372.048 14.66H370.048V16.66H372.048V14.66ZM372.048 10.448H374.048V8.448H372.048V10.448ZM362.652 10.448V8.448H360.652V10.448H362.652ZM362.652 16.208H360.652V17.3165L361.592 17.904L362.652 16.208ZM370.433 23.4265C370.929 23.7737 371.393 24.0876 371.825 24.3671L373.998 21.0089C373.614 20.7604 373.19 20.4743 372.726 20.1495L370.433 23.4265ZM371.94 24.4363C372.255 24.6113 372.493 24.7854 372.671 24.9496L375.384 22.0104C374.938 21.5986 374.432 21.2447 373.883 20.9397L371.94 24.4363ZM372.671 24.9496C372.89 25.1517 372.964 25.3291 372.964 25.604H376.964C376.964 24.1989 376.413 22.9603 375.384 22.0104L372.671 24.9496ZM372.964 25.604V31.724H376.964V25.604H372.964ZM372.964 31.724C372.964 32.2647 372.808 32.4608 372.612 32.608L375.012 35.808C376.351 34.8032 376.964 33.3433 376.964 31.724H372.964ZM372.548 32.6575C372.343 32.8251 371.975 33 371.256 33V37C372.648 37 373.985 36.6469 375.075 35.7585L372.548 32.6575ZM371.256 33H359.772V37H371.256V33ZM361.772 35V28.34H357.772V35H361.772ZM359.772 30.34H362.364V26.34H359.772V30.34ZM360.364 28.34V32.552H364.364V28.34H360.364ZM362.364 34.552H372.084V30.552H362.364V34.552ZM374.084 32.552V25.532H370.084V32.552H374.084ZM373.131 23.828L363.699 18.032L361.604 21.44L371.036 27.236L373.131 23.828ZM363.644 17.9995C362.897 17.5725 362.329 17.1636 361.912 16.783L359.215 19.737C359.902 20.3644 360.727 20.9395 361.659 21.4725L363.644 17.9995ZM361.978 16.8458C361.895 16.7627 361.772 16.6013 361.772 16.136H357.772C357.772 17.4467 358.176 18.7013 359.149 19.6742L361.978 16.8458ZM361.772 16.136V11.6H357.772V16.136H361.772ZM361.772 11.6C361.772 11.0367 361.84 10.6756 361.914 10.4624C361.982 10.2647 362.038 10.239 362.015 10.2566L359.544 7.11136C358.145 8.21016 357.772 9.96759 357.772 11.6H361.772ZM362.021 10.2521C362.003 10.2664 362.091 10.1925 362.405 10.1206C362.713 10.0501 363.157 10 363.768 10V6C362.259 6 360.672 6.21851 359.538 7.11591L362.021 10.2521ZM363.768 10H374.64V6H363.768V10ZM372.64 8V14.66H376.64V8H372.64ZM374.64 12.66H372.048V16.66H374.64V12.66ZM374.048 14.66V10.448H370.048V14.66H374.048ZM372.048 8.448H362.652V12.448H372.048V8.448ZM360.652 10.448V16.208H364.652V10.448H360.652ZM361.592 17.904L370.52 23.484L372.64 20.092L363.712 14.512L361.592 17.904ZM387.338 32.552V30.552H385.338V32.552H387.338ZM389.606 32.552V34.552H391.606V32.552H389.606ZM389.606 10.448H391.606V8.448H389.606V10.448ZM385.07 10.448V8.448H383.07V10.448H385.07ZM385.07 14.696V16.696H387.07V14.696H385.07ZM382.478 14.696H380.478V16.696H382.478V14.696ZM382.478 8V6H380.478V8H382.478ZM399.722 8H401.722V6H399.722V8ZM399.722 14.696V16.696H401.722V14.696H399.722ZM397.094 14.696H395.094V16.696H397.094V14.696ZM397.094 10.448H399.094V8.448H397.094V10.448ZM392.558 10.448V8.448H390.558V10.448H392.558ZM392.558 32.552H390.558V34.552H392.558V32.552ZM394.898 32.552H396.898V30.552H394.898V32.552ZM394.898 35V37H396.898V35H394.898ZM387.338 35H385.338V37H387.338V35ZM387.338 34.552H389.606V30.552H387.338V34.552ZM391.606 32.552V10.448H387.606V32.552H391.606ZM389.606 8.448H385.07V12.448H389.606V8.448ZM383.07 10.448V14.696H387.07V10.448H383.07ZM385.07 12.696H382.478V16.696H385.07V12.696ZM384.478 14.696V8H380.478V14.696H384.478ZM382.478 10H399.722V6H382.478V10ZM397.722 8V14.696H401.722V8H397.722ZM399.722 12.696H397.094V16.696H399.722V12.696ZM399.094 14.696V10.448H395.094V14.696H399.094ZM397.094 8.448H392.558V12.448H397.094V8.448ZM390.558 10.448V32.552H394.558V10.448H390.558ZM392.558 34.552H394.898V30.552H392.558V34.552ZM392.898 32.552V35H396.898V32.552H392.898ZM394.898 33H387.338V37H394.898V33ZM389.338 35V32.552H385.338V35H389.338ZM406.688 32.012L405.183 33.329L405.205 33.3548L405.229 33.3799L406.688 32.012ZM406.688 34.64L408.102 36.0542L408.102 36.0542L406.688 34.64ZM404.132 34.64L402.718 36.0542L402.742 36.0786L402.767 36.1021L404.132 34.64ZM404.132 32.012L402.718 30.5978L402.695 30.6206L402.673 30.6441L404.132 32.012ZM405.428 33.436C405.419 33.436 405.363 33.4328 405.289 33.3989C405.216 33.3654 405.181 33.3276 405.183 33.329L408.193 30.695C407.483 29.8831 406.517 29.436 405.428 29.436V33.436ZM405.229 33.3799C405.244 33.3961 405.249 33.4043 405.249 33.4038C405.248 33.403 405.244 33.3963 405.239 33.3844C405.234 33.3724 405.231 33.3604 405.229 33.3503C405.227 33.3405 405.228 33.3376 405.228 33.344H409.228C409.228 32.3075 408.837 31.3807 408.147 30.6441L405.229 33.3799ZM405.228 33.344C405.228 33.3505 405.227 33.3452 405.23 33.3308C405.233 33.3161 405.238 33.2972 405.247 33.2768C405.255 33.2564 405.264 33.2404 405.272 33.2298C405.278 33.2196 405.281 33.2186 405.274 33.2258L408.102 36.0542C408.833 35.3234 409.228 34.3845 409.228 33.344H405.228ZM405.274 33.2258C405.278 33.2209 405.291 33.2097 405.311 33.1964C405.331 33.1829 405.354 33.1707 405.378 33.161C405.43 33.1403 405.454 33.144 405.428 33.144V37.144C406.426 37.144 407.366 36.7898 408.102 36.0542L405.274 33.2258ZM405.428 33.144C405.413 33.144 405.41 33.1428 405.417 33.144C405.423 33.1452 405.435 33.1481 405.451 33.154C405.466 33.1599 405.479 33.1669 405.489 33.1732C405.499 33.1793 405.501 33.1821 405.496 33.1779L402.767 36.1021C403.507 36.7927 404.43 37.144 405.428 37.144V33.144ZM405.546 33.2258C405.539 33.2186 405.541 33.2196 405.548 33.2298C405.555 33.2404 405.564 33.2564 405.573 33.2768C405.581 33.2972 405.587 33.3161 405.589 33.3308C405.592 33.3452 405.592 33.3505 405.592 33.344H401.592C401.592 34.3845 401.987 35.3234 402.718 36.0542L405.546 33.2258ZM405.592 33.344C405.592 33.3376 405.592 33.3405 405.59 33.3503C405.588 33.3604 405.585 33.3724 405.58 33.3844C405.575 33.3963 405.571 33.403 405.571 33.4038C405.57 33.4043 405.576 33.3961 405.591 33.3799L402.673 30.6441C401.982 31.3807 401.592 32.3075 401.592 33.344H405.592ZM405.546 33.4262C405.59 33.3823 405.595 33.3903 405.556 33.4076C405.537 33.4159 405.514 33.4237 405.489 33.4291C405.463 33.4345 405.442 33.436 405.428 33.436V29.436C404.346 29.436 403.423 29.8924 402.718 30.5978L405.546 33.4262ZM436.867 24.308L435.811 22.6093L435.801 22.6155L436.867 24.308ZM447.235 17.864L448.291 19.5626L449.235 18.9758V17.864H447.235ZM447.235 10.448H449.235V8.448H447.235V10.448ZM437.767 10.448V8.448H435.767V10.448H437.767ZM437.767 14.84V16.84H439.767V14.84H437.767ZM434.959 14.84H432.959V16.84H434.959V14.84ZM434.959 8V6H432.959V8H434.959ZM449.179 8.936L447.869 10.4474L447.877 10.4545L449.179 8.936ZM448.423 19.952L447.379 18.2463L447.366 18.2541L447.353 18.2621L448.423 19.952ZM437.731 26.72L436.661 25.0301L435.731 25.619V26.72H437.731ZM437.731 32.552H435.731V34.552H437.731V32.552ZM447.199 32.552V34.552H449.199V32.552H447.199ZM447.199 29.24V27.24H445.199V29.24H447.199ZM450.223 29.24H452.223V27.24H450.223V29.24ZM450.223 35V37H452.223V35H450.223ZM434.923 35H432.923V37H434.923V35ZM436.923 28.484C436.923 26.9809 437.384 26.3458 437.933 26.0005L435.801 22.6155C433.758 23.9022 432.923 26.0511 432.923 28.484H436.923ZM437.923 26.0066L448.291 19.5626L446.179 16.1654L435.811 22.6094L437.923 26.0066ZM449.235 17.864V10.448H445.235V17.864H449.235ZM447.235 8.448H437.767V12.448H447.235V8.448ZM435.767 10.448V14.84H439.767V10.448H435.767ZM437.767 12.84H434.959V16.84H437.767V12.84ZM436.959 14.84V8H432.959V14.84H436.959ZM434.959 10H445.435V6H434.959V10ZM445.435 10C447.096 10 447.717 10.3156 447.869 10.4474L450.489 7.42462C449.201 6.30836 447.326 6 445.435 6V10ZM447.877 10.4545C447.858 10.4382 447.938 10.4926 448.025 10.7721C448.115 11.0599 448.187 11.5114 448.187 12.176H452.187C452.187 10.4405 451.843 8.58531 450.481 7.41748L447.877 10.4545ZM448.187 12.176V16.388H452.187V12.176H448.187ZM448.187 16.388C448.187 17.5111 447.834 17.9676 447.379 18.2463L449.467 21.6577C451.364 20.4964 452.187 18.5769 452.187 16.388H448.187ZM447.353 18.2621L436.661 25.0301L438.801 28.4099L449.493 21.6419L447.353 18.2621ZM435.731 26.72V32.552H439.731V26.72H435.731ZM437.731 34.552H447.199V30.552H437.731V34.552ZM449.199 32.552V29.24H445.199V32.552H449.199ZM447.199 31.24H450.223V27.24H447.199V31.24ZM448.223 29.24V35H452.223V29.24H448.223ZM450.223 33H434.923V37H450.223V33ZM436.923 35V28.484H432.923V35H436.923ZM473.241 9.224L471.675 10.4678L471.695 10.4932L471.716 10.518L473.241 9.224ZM459.993 32.408L461.94 31.9484L461.932 31.9149L461.923 31.8818L459.993 32.408ZM460.569 9.296L462.182 10.4787L462.197 10.458L462.212 10.4368L460.569 9.296ZM462.657 32.552H460.657V34.552H462.657V32.552ZM471.369 32.552V34.552H473.369V32.552H471.369ZM471.369 10.448H473.369V8.448H471.369V10.448ZM462.657 10.448V8.448H460.657V10.448H462.657ZM470.073 10C471.187 10 471.543 10.3017 471.675 10.4678L474.807 7.98024C473.643 6.51433 471.887 6 470.073 6V10ZM471.716 10.518C471.956 10.8008 472.249 11.4393 472.249 12.788H476.249C476.249 10.9687 475.87 9.23118 474.766 7.93004L471.716 10.518ZM472.249 12.788V30.104H476.249V12.788H472.249ZM472.249 30.104C472.249 31.7037 471.964 32.409 471.785 32.648L474.985 35.048C475.958 33.751 476.249 31.9603 476.249 30.104H472.249ZM471.785 32.648C471.763 32.6772 471.503 33 470.253 33V37C472.027 37 473.855 36.5548 474.985 35.048L471.785 32.648ZM470.253 33H464.061V37H470.253V33ZM464.061 33C463.133 33 462.637 32.8222 462.391 32.6653C462.2 32.5436 462.037 32.3632 461.94 31.9484L458.047 32.8676C458.357 34.1808 459.076 35.2964 460.241 36.0387C461.351 36.7458 462.685 37 464.061 37V33ZM461.923 31.8818C461.833 31.5533 461.777 31.1459 461.777 30.644H457.777C457.777 31.4381 457.865 32.2067 458.063 32.9342L461.923 31.8818ZM461.777 30.644V12.788H457.777V30.644H461.777ZM461.777 12.788C461.777 11.3065 462.038 10.6749 462.182 10.4787L458.956 8.11327C458.044 9.35712 457.777 11.0535 457.777 12.788H461.777ZM462.212 10.4368C462.286 10.3292 462.572 10 463.773 10V6C461.902 6 460.052 6.53475 458.926 8.15521L462.212 10.4368ZM463.773 10H470.073V6H463.773V10ZM462.657 34.552H471.369V30.552H462.657V34.552ZM473.369 32.552V10.448H469.369V32.552H473.369ZM471.369 8.448H462.657V12.448H471.369V8.448ZM460.657 10.448V32.552H464.657V10.448H460.657ZM485.75 24.308L484.694 22.6093L484.684 22.6155L485.75 24.308ZM496.118 17.864L497.173 19.5626L498.118 18.9758V17.864H496.118ZM496.118 10.448H498.118V8.448H496.118V10.448ZM486.65 10.448V8.448H484.65V10.448H486.65ZM486.65 14.84V16.84H488.65V14.84H486.65ZM483.842 14.84H481.842V16.84H483.842V14.84ZM483.842 8V6H481.842V8H483.842ZM498.062 8.936L496.752 10.4474L496.76 10.4545L498.062 8.936ZM497.306 19.952L496.261 18.2463L496.249 18.2541L496.236 18.2621L497.306 19.952ZM486.614 26.72L485.544 25.0301L484.614 25.619V26.72H486.614ZM486.614 32.552H484.614V34.552H486.614V32.552ZM496.082 32.552V34.552H498.082V32.552H496.082ZM496.082 29.24V27.24H494.082V29.24H496.082ZM499.106 29.24H501.106V27.24H499.106V29.24ZM499.106 35V37H501.106V35H499.106ZM483.806 35H481.806V37H483.806V35ZM485.806 28.484C485.806 26.9809 486.267 26.3458 486.815 26.0005L484.684 22.6155C482.64 23.9022 481.806 26.0511 481.806 28.484H485.806ZM486.805 26.0066L497.173 19.5626L495.062 16.1654L484.694 22.6094L486.805 26.0066ZM498.118 17.864V10.448H494.118V17.864H498.118ZM496.118 8.448H486.65V12.448H496.118V8.448ZM484.65 10.448V14.84H488.65V10.448H484.65ZM486.65 12.84H483.842V16.84H486.65V12.84ZM485.842 14.84V8H481.842V14.84H485.842ZM483.842 10H494.318V6H483.842V10ZM494.318 10C495.979 10 496.6 10.3156 496.752 10.4474L499.371 7.42462C498.083 6.30836 496.209 6 494.318 6V10ZM496.76 10.4545C496.741 10.4382 496.821 10.4926 496.908 10.7721C496.997 11.0599 497.07 11.5114 497.07 12.176H501.07C501.07 10.4405 500.726 8.58531 499.363 7.41748L496.76 10.4545ZM497.07 12.176V16.388H501.07V12.176H497.07ZM497.07 16.388C497.07 17.5111 496.716 17.9676 496.261 18.2463L498.35 21.6577C500.247 20.4964 501.07 18.5769 501.07 16.388H497.07ZM496.236 18.2621L485.544 25.0301L487.683 28.4099L498.375 21.6419L496.236 18.2621ZM484.614 26.72V32.552H488.614V26.72H484.614ZM486.614 34.552H496.082V30.552H486.614V34.552ZM498.082 32.552V29.24H494.082V32.552H498.082ZM496.082 31.24H499.106V27.24H496.082V31.24ZM497.106 29.24V35H501.106V29.24H497.106ZM499.106 33H483.806V37H499.106V33ZM485.806 35V28.484H481.806V35H485.806ZM523.204 10.448L524.615 11.8651L525.204 11.2788V10.448H523.204ZM514.384 19.232L512.972 17.8149L509.541 21.232H514.384V19.232ZM522.304 20.204L523.773 18.8474L523.771 18.8452L522.304 20.204ZM523.024 32.3L524.999 32.616L525 32.6041L523.024 32.3ZM522.34 33.776L520.881 32.4081L520.849 32.4424L520.818 32.4781L522.34 33.776ZM508.408 31.976L510.394 31.7396L510.393 31.7377L508.408 31.976ZM508.3 28.16V26.16H506.3V28.16H508.3ZM510.928 28.16H512.928V26.16H510.928V28.16ZM510.928 32.768H508.928V34.768H510.928V32.768ZM520.252 32.768V34.768H522.252V32.768H520.252ZM520.252 21.572H522.252V19.572H520.252V21.572ZM510.928 21.572H508.928V23.572H510.928V21.572ZM510.928 19.232L509.525 17.8063L508.928 18.394V19.232H510.928ZM519.856 10.448L521.258 11.8737L524.74 8.448H519.856V10.448ZM510.928 10.448V8.448H508.928V10.448H510.928ZM510.928 12.968V14.968H512.928V12.968H510.928ZM508.3 12.968H506.3V14.968H508.3V12.968ZM508.3 8V6H506.3V8H508.3ZM523.204 8H525.204V6H523.204V8ZM521.792 9.0309L512.972 17.8149L515.795 20.6491L524.615 11.8651L521.792 9.0309ZM514.384 21.232H519.028V17.232H514.384V21.232ZM519.028 21.232C520.464 21.232 520.824 21.5494 520.836 21.5628L523.771 18.8452C522.584 17.5626 520.76 17.232 519.028 17.232V21.232ZM520.834 21.5606C520.883 21.6135 521.168 22.0445 521.168 23.444H525.168C525.168 21.7715 524.876 20.0425 523.773 18.8474L520.834 21.5606ZM521.168 23.444V30.176H525.168V23.444H521.168ZM521.168 30.176C521.168 30.8906 521.124 31.494 521.047 31.9959L525 32.6041C525.115 31.858 525.168 31.0454 525.168 30.176H521.168ZM521.049 31.984C521.006 32.2524 520.927 32.3585 520.881 32.4081L523.799 35.1439C524.472 34.4255 524.85 33.5476 524.999 32.616L521.049 31.984ZM520.818 32.4781C520.734 32.5768 520.169 33 518.2 33V37C520.359 37 522.554 36.6072 523.861 35.0739L520.818 32.4781ZM518.2 33H512.728V37H518.2V33ZM512.728 33C511.624 33 511.068 32.7832 510.815 32.6055C510.635 32.4801 510.458 32.2788 510.394 31.7396L506.422 32.2124C506.598 33.6892 507.26 34.9999 508.521 35.8825C509.707 36.7128 511.191 37 512.728 37V33ZM510.393 31.7377C510.332 31.225 510.3 30.6691 510.3 30.068H506.3C506.3 30.8109 506.339 31.527 506.422 32.2143L510.393 31.7377ZM510.3 30.068V28.16H506.3V30.068H510.3ZM508.3 30.16H510.928V26.16H508.3V30.16ZM508.928 28.16V32.768H512.928V28.16H508.928ZM510.928 34.768H520.252V30.768H510.928V34.768ZM522.252 32.768V21.572H518.252V32.768H522.252ZM520.252 19.572H510.928V23.572H520.252V19.572ZM512.928 21.572V19.232H508.928V21.572H512.928ZM512.33 20.6577L521.258 11.8737L518.453 9.02233L509.525 17.8063L512.33 20.6577ZM519.856 8.448H510.928V12.448H519.856V8.448ZM508.928 10.448V12.968H512.928V10.448H508.928ZM510.928 10.968H508.3V14.968H510.928V10.968ZM510.3 12.968V8H506.3V12.968H510.3ZM508.3 10H523.204V6H508.3V10ZM521.204 8V10.448H525.204V8H521.204Z" fill="black"/>
</svg>
